<svg width="74" height="74" viewBox="0 0 74 74" fill="none" xmlns="http://www.w3.org/2000/svg">
<path d="M36.9601 55.44C35.6041 55.4402 34.286 54.993 33.2101 54.1677C32.1342 53.3424 31.3607 52.1852 31.0095 50.8755" stroke="#F7B142" stroke-width="6.16" stroke-linecap="round"/>
<path d="M32.1058 14.4116C34.0493 11.1068 35.0225 9.45281 36.4116 9.20641C36.7742 9.14083 37.1456 9.14083 37.5081 9.20641C38.8972 9.45281 39.8705 11.1068 41.814 14.4116L46.9514 23.1465C50.5416 29.2514 53.3431 35.7869 55.2889 42.5967C58.4521 53.6631 50.1454 64.6803 38.6323 64.6803H35.2874C23.7775 64.6803 15.4676 53.6631 18.6308 42.5967C20.5767 35.7869 23.3782 29.2514 26.9683 23.1465L32.1058 14.4116Z" stroke="#F7B142" stroke-width="6.16"/>
</svg>
