<svg width="72" height="72" viewBox="0 0 72 72" fill="none" xmlns="http://www.w3.org/2000/svg">
<path d="M17.8125 44.5312V47.5C17.8125 48.3411 17.5275 49.0467 16.9575 49.6167C16.3875 50.1867 15.6829 50.4707 14.8438 50.4688H11.875C11.0339 50.4688 10.3293 50.1838 9.76125 49.6138C9.19323 49.0438 8.90823 48.3392 8.90625 47.5V23.75L15.1406 5.9375C15.4375 5.04688 15.9699 4.32943 16.7378 3.78516C17.5057 3.24089 18.3588 2.96875 19.2969 2.96875H51.9531C52.8932 2.96875 53.7472 3.24089 54.5152 3.78516C55.2831 4.32943 55.8145 5.04688 56.1094 5.9375L62.3438 23.75V47.5C62.3438 48.3411 62.0597 49.0467 61.4917 49.6167C60.9237 50.1867 60.2181 50.4707 59.375 50.4688H56.4062C55.5651 50.4688 54.8605 50.1838 54.2925 49.6138C53.7245 49.0438 53.4395 48.3392 53.4375 47.5V44.5312H17.8125ZM17.2188 17.8125H54.0313L50.9141 8.90625H20.3359L17.2188 17.8125ZM22.2656 35.625C23.5026 35.625 24.5545 35.1926 25.4214 34.3277C26.2883 33.4628 26.7207 32.4108 26.7188 31.1719C26.7168 29.9329 26.2843 28.882 25.4214 28.0191C24.5585 27.1561 23.5066 26.7227 22.2656 26.7188C21.0247 26.7148 19.9738 27.1482 19.1128 28.0191C18.2519 28.8899 17.8184 29.9408 17.8125 31.1719C17.8066 32.4029 18.24 33.4548 19.1128 34.3277C19.9856 35.2005 21.0366 35.6329 22.2656 35.625ZM48.9844 35.625C50.2214 35.625 51.2733 35.1926 52.1402 34.3277C53.007 33.4628 53.4395 32.4108 53.4375 31.1719C53.4355 29.9329 53.0031 28.882 52.1402 28.0191C51.2772 27.1561 50.2253 26.7227 48.9844 26.7188C47.7434 26.7148 46.6925 27.1482 45.8316 28.0191C44.9706 28.8899 44.5372 29.9408 44.5312 31.1719C44.5253 32.4029 44.9587 33.4548 45.8316 34.3277C46.7044 35.2005 47.7553 35.6329 48.9844 35.625ZM38.5938 68.2812L20.7812 59.375H32.6562V53.4375L50.4688 62.3438H38.5938V68.2812ZM14.8438 38.5938H56.4062V23.75H14.8438V38.5938Z" fill="#F7B142"/>
</svg>
