<svg width="72" height="72" viewBox="0 0 72 72" fill="none" xmlns="http://www.w3.org/2000/svg">
<path d="M22 10H50V16H54V10C54 8.93913 53.5786 7.92172 52.8284 7.17157C52.0783 6.42143 51.0609 6 50 6H22C20.9391 6 19.9217 6.42143 19.1716 7.17157C18.4214 7.92172 18 8.93913 18 10V23.7H22V10Z" fill="#F7B142"/>
<path d="M22 10H50V16H54V10C54 8.93913 53.5786 7.92172 52.8284 7.17157C52.0783 6.42143 51.0609 6 50 6H22C20.9391 6 19.9217 6.42143 19.1716 7.17157C18.4214 7.92172 18 8.93913 18 10V23.7H22V10Z" stroke="black"/>
<path d="M60 20H34V24H50V36H54V24H60V52H44V34C44 32.9391 43.5786 31.9217 42.8284 31.1716C42.0783 30.4214 41.0609 30 40 30H12C10.9391 30 9.92172 30.4214 9.17157 31.1716C8.42143 31.9217 8 32.9391 8 34V62C8 63.0609 8.42143 64.0783 9.17157 64.8284C9.92172 65.5786 10.9391 66 12 66H40C41.0609 66 42.0783 65.5786 42.8284 64.8284C43.5786 64.0783 44 63.0609 44 62V56H60C61.0609 56 62.0783 55.5786 62.8284 54.8284C63.5786 54.0783 64 53.0609 64 52V24C64 22.9391 63.5786 21.9217 62.8284 21.1716C62.0783 20.4214 61.0609 20 60 20ZM12 62V34H40V52H32V40H28V52C28 53.0609 28.4214 54.0783 29.1716 54.8284C29.9217 55.5786 30.9391 56 32 56H40V62H12Z" fill="#F7B142"/>
<path d="M60 20H34V24H50V36H54V24H60V52H44V34C44 32.9391 43.5786 31.9217 42.8284 31.1716C42.0783 30.4214 41.0609 30 40 30H12C10.9391 30 9.92172 30.4214 9.17157 31.1716C8.42143 31.9217 8 32.9391 8 34V62C8 63.0609 8.42143 64.0783 9.17157 64.8284C9.92172 65.5786 10.9391 66 12 66H40C41.0609 66 42.0783 65.5786 42.8284 64.8284C43.5786 64.0783 44 63.0609 44 62V56H60C61.0609 56 62.0783 55.5786 62.8284 54.8284C63.5786 54.0783 64 53.0609 64 52V24C64 22.9391 63.5786 21.9217 62.8284 21.1716C62.0783 20.4214 61.0609 20 60 20ZM12 62V34H40V52H32V40H28V52C28 53.0609 28.4214 54.0783 29.1716 54.8284C29.9217 55.5786 30.9391 56 32 56H40V62H12Z" stroke="black"/>
</svg>
