<svg width="74" height="74" viewBox="0 0 74 74" fill="none" xmlns="http://www.w3.org/2000/svg">
<path d="M36.72 67.3201C19.8196 67.3201 6.12 53.6205 6.12 36.7201C6.12 19.8197 19.8196 6.12012 36.72 6.12012C53.6204 6.12012 67.32 19.8197 67.32 36.7201C67.32 53.6205 53.6204 67.3201 36.72 67.3201ZM36.72 61.2001C43.2125 61.2001 49.4391 58.621 54.03 54.0301C58.6209 49.4392 61.2 43.2126 61.2 36.7201C61.2 30.2276 58.6209 24.001 54.03 19.4101C49.4391 14.8193 43.2125 12.2401 36.72 12.2401C30.2275 12.2401 24.0009 14.8193 19.41 19.4101C14.8191 24.001 12.24 30.2276 12.24 36.7201C12.24 43.2126 14.8191 49.4392 19.41 54.0301C24.0009 58.621 30.2275 61.2001 36.72 61.2001ZM33.66 39.1436C32.0492 38.4406 30.7296 37.2044 29.9231 35.6429C29.1165 34.0814 28.8723 32.2898 29.2314 30.5693C29.5904 28.8489 30.531 27.3046 31.8948 26.196C33.2586 25.0875 34.9625 24.4823 36.72 24.4823C38.4775 24.4823 40.1814 25.0875 41.5452 26.196C42.909 27.3046 43.8496 28.8489 44.2086 30.5693C44.5677 32.2898 44.3234 34.0814 43.5169 35.6429C42.7104 37.2044 41.3908 38.4406 39.78 39.1436V48.9601H33.66V39.1436Z" fill="#F7B142"/>
</svg>
