<svg width="74" height="74" viewBox="0 0 74 74" fill="none" xmlns="http://www.w3.org/2000/svg">
<path d="M27.5399 64.2599H15.2999C13.6768 64.2599 12.1202 63.6151 10.9724 62.4674C9.82472 61.3197 9.17993 59.7631 9.17993 58.1399V15.2999C9.17993 13.6768 9.82472 12.1202 10.9724 10.9724C12.1202 9.82472 13.6768 9.17993 15.2999 9.17993H58.1399C59.7631 9.17993 61.3197 9.82472 62.4674 10.9724C63.6151 12.1202 64.2599 13.6768 64.2599 15.2999V58.1399C64.2599 59.7631 63.6151 61.3197 62.4674 62.4674C61.3197 63.6151 59.7631 64.2599 58.1399 64.2599H42.8399M27.5399 9.17993V30.5999M64.2599 30.5999H42.8399M9.17993 45.8999H36.7199" stroke="#F7B142" stroke-width="6.12" stroke-linecap="round" stroke-linejoin="round"/>
</svg>
