<svg width="77" height="77" viewBox="0 0 77 77" fill="none" xmlns="http://www.w3.org/2000/svg">
<path d="M7.19995 62.4004V45.6004C7.20747 43.0566 8.22131 40.6192 10.02 38.8205C11.8188 37.0218 14.2562 36.0079 16.8 36.0004H59.9999C62.5437 36.0079 64.9811 37.0218 66.7799 38.8205C68.5786 40.6192 69.5924 43.0566 69.5999 45.6004V62.4004M57.5999 36.0004H14.4V20.4004C14.4047 18.8106 15.0384 17.2872 16.1626 16.163C17.2867 15.0388 18.8101 14.4051 20.4 14.4004H56.3999C57.9898 14.4051 59.5132 15.0388 60.6373 16.163C61.7615 17.2872 62.3952 18.8106 62.3999 20.4004V36.0004H57.5999Z" stroke="white" stroke-width="4.8384" stroke-linecap="round" stroke-linejoin="round"/>
<path d="M7.19995 62.3998V61.1998C7.20272 60.2459 7.5829 59.3318 8.25743 58.6573C8.93196 57.9827 9.84602 57.6026 10.8 57.5998H65.9999C66.9539 57.6026 67.8679 57.9827 68.5425 58.6573C69.217 59.3318 69.5972 60.2459 69.5999 61.1998V62.3998M16.8 35.9998V33.5998C16.8035 32.3279 17.3104 31.109 18.2098 30.2096C19.1092 29.3102 20.328 28.8034 21.6 28.7998H33.5999C34.8719 28.8034 36.0907 29.3102 36.9901 30.2096C37.8895 31.109 38.3964 32.3279 38.3999 33.5998M38.3999 33.5998V35.9998M38.3999 33.5998C38.4035 32.3279 38.9104 31.109 39.8098 30.2096C40.7092 29.3102 41.928 28.8034 43.1999 28.7998H55.1999C56.4719 28.8034 57.6907 29.3102 58.5901 30.2096C59.4895 31.109 59.9964 32.3279 59.9999 33.5998V35.9998" stroke="white" stroke-width="4.8384" stroke-linecap="round" stroke-linejoin="round"/>
</svg>
