<svg width="77" height="77" viewBox="0 0 77 77" fill="none" xmlns="http://www.w3.org/2000/svg">
<path d="M28.7998 48.0009L19.1998 70.4009M47.9998 48.0009L57.5998 70.4009M38.3998 48.0009V70.4009M38.3998 48.0009C43.7958 48.0058 49.013 46.0668 53.0961 42.5391C57.1792 39.0113 59.855 34.1308 60.6334 28.7913C60.835 27.3993 60.9342 26.7049 60.4542 26.1513C59.9742 25.5977 59.1998 25.6009 57.651 25.6009H19.1486C17.5998 25.6009 16.8254 25.6009 16.3454 26.1513C15.8654 26.7049 15.9646 27.3993 16.1662 28.7913C16.944 34.1311 19.6196 39.012 23.7028 42.5399C27.7861 46.0677 33.0036 48.0065 38.3998 48.0009ZM49.779 19.2009C50.2268 18.7967 50.5849 18.3031 50.8299 17.7519C51.075 17.2006 51.2016 16.6041 51.2016 16.0009C51.2016 15.3976 51.075 14.8011 50.8299 14.2499C50.5849 13.6987 50.2268 13.205 49.779 12.8009C49.3312 12.3967 48.9731 11.9031 48.7281 11.3519C48.4831 10.8006 48.3564 10.2041 48.3564 9.60088C48.3564 8.99764 48.4831 8.40112 48.7281 7.8499C48.9731 7.29868 49.3312 6.80503 49.779 6.40088M38.3998 19.2009C38.8476 18.7967 39.2057 18.3031 39.4507 17.7519C39.6958 17.2006 39.8224 16.6041 39.8224 16.0009C39.8224 15.3976 39.6958 14.8011 39.4507 14.2499C39.2057 13.6987 38.8476 13.205 38.3998 12.8009C37.952 12.3967 37.5939 11.9031 37.3489 11.3519C37.1039 10.8006 36.9772 10.2041 36.9772 9.60088C36.9772 8.99764 37.1039 8.40112 37.3489 7.8499C37.5939 7.29868 37.952 6.80503 38.3998 6.40088M27.0206 19.2009C27.4684 18.7967 27.8265 18.3031 28.0715 17.7519C28.3166 17.2006 28.4432 16.6041 28.4432 16.0009C28.4432 15.3976 28.3166 14.8011 28.0715 14.2499C27.8265 13.6987 27.4684 13.205 27.0206 12.8009C26.5728 12.3967 26.2147 11.9031 25.9697 11.3519C25.7247 10.8006 25.598 10.2041 25.598 9.60088C25.598 8.99764 25.7247 8.40112 25.9697 7.8499C26.2147 7.29868 26.5728 6.80503 27.0206 6.40088M23.9998 60.8009H52.7998M60.7998 32.0009H63.9998M15.9998 32.0009H12.7998" stroke="white" stroke-width="4.8" stroke-linecap="round" stroke-linejoin="round"/>
</svg>
