<svg width="77" height="77" viewBox="0 0 77 77" fill="none" xmlns="http://www.w3.org/2000/svg">
<path d="M60.48 19.2C59.84 17.28 57.92 16 56 16H20.8C18.56 16 16.96 17.28 16.32 19.2L9.59998 38.4V64C9.59998 65.6 11.2 67.2 12.8 67.2H16C17.92 67.2 19.2 65.6 19.2 64V60.8H57.6V64C57.6 65.6 59.2 67.2 60.8 67.2H64C65.6 67.2 67.2 65.6 67.2 64V38.4L60.48 19.2ZM21.76 22.4H54.72L58.24 32H18.56L21.76 22.4ZM60.8 54.4H16V38.4H60.8V54.4ZM24 41.6C26.56 41.6 28.8 43.84 28.8 46.4C28.8 48.96 26.56 51.2 24 51.2C21.44 51.2 19.2 48.96 19.2 46.4C19.2 43.84 21.44 41.6 24 41.6ZM52.8 41.6C55.36 41.6 57.6 43.84 57.6 46.4C57.6 48.96 55.36 51.2 52.8 51.2C50.24 51.2 48 48.96 48 46.4C48 43.84 50.24 41.6 52.8 41.6Z" fill="white"/>
</svg>
