<svg width="77" height="77" viewBox="0 0 77 77" fill="none" xmlns="http://www.w3.org/2000/svg">
<path d="M25.6 9.6001H48V1.6001L59.2 12.8001L48 24.0001V16.0001H25.6V24.0001L14.4 12.8001L25.6 1.6001V9.6001ZM9.59998 54.4001V20.8001H16V54.4001C16 56.0975 16.6743 57.7253 17.8745 58.9256C19.0747 60.1258 20.7026 60.8001 22.4 60.8001H56V67.2001H22.4C19.0052 67.2001 15.7495 65.8515 13.349 63.4511C10.9485 61.0506 9.59998 57.7949 9.59998 54.4001ZM67.2 51.2001V28.8001H75.2L64 17.6001L52.8 28.8001H60.8V51.2001H52.8L64 62.4001L75.2 51.2001H67.2Z" fill="white"/>
</svg>
