<svg width="453" height="83" viewBox="0 0 453 83" fill="none" xmlns="http://www.w3.org/2000/svg">
<path d="M1.408 57.056C1.344 57.056 1.024 56.672 0.704 56.16C0.064 55.136 0.192 53.856 0.896 54.112C1.088 54.24 1.216 54.176 1.088 53.984C1.024 53.856 1.216 53.664 1.6 53.6C1.984 53.472 2.496 53.216 2.624 53.024C2.816 52.768 3.2 52.64 3.392 52.64C3.648 52.64 4.032 52.384 4.224 52.064C4.48 51.68 4.8 51.488 5.12 51.616C5.504 51.68 5.696 51.616 5.696 51.36C5.696 51.104 5.76 50.976 5.952 51.104C6.08 51.168 6.208 51.104 6.272 50.912C6.336 50.784 6.592 50.592 6.784 50.592C7.04 50.528 7.616 50.272 8.064 50.08C8.512 49.824 9.024 49.696 9.088 49.76C9.216 49.888 9.28 49.76 9.28 49.568C9.28 49.376 9.472 49.312 9.664 49.376C9.92 49.504 10.048 49.44 10.048 49.312C9.984 49.184 10.048 49.056 10.176 49.056C10.304 49.056 10.752 48.864 11.2 48.608C11.648 48.352 12.096 48.16 12.096 48.224C12.16 48.224 12.736 47.968 13.376 47.648C14.016 47.328 14.72 47.136 14.848 47.2C14.976 47.328 15.104 47.264 15.104 47.136C15.104 46.88 16.192 46.432 16.896 46.368C17.088 46.368 17.344 46.24 17.6 45.984C17.792 45.792 18.24 45.664 18.624 45.728C18.944 45.856 19.2 45.792 19.136 45.664C19.072 45.536 19.712 45.216 20.608 44.96C22.464 44.384 22.336 44.448 22.848 44.256C24.32 43.744 25.664 43.36 26.496 43.168C27.008 43.04 27.968 42.784 28.544 42.656C29.184 42.464 29.888 42.272 30.08 42.208C30.528 42.144 30.784 42.08 32.384 41.44C32.768 41.312 33.344 41.248 33.536 41.312C33.728 41.44 33.984 41.312 34.112 41.056C34.176 40.864 34.56 40.672 34.944 40.672C35.456 40.672 36.224 40.096 37.76 38.624C38.912 37.472 40 36.576 40.128 36.704C40.32 36.832 40.384 36.768 40.256 36.64C40.064 36.256 42.688 33.696 43.008 33.952C43.136 34.08 43.136 34.016 43.072 33.824C42.88 33.568 44.544 32.032 44.864 32.16C44.864 32.224 44.928 32.16 44.864 32.096C44.8 32.032 46.4 30.432 46.592 30.368C46.656 30.368 47.744 29.408 49.024 28.192C50.304 26.976 51.456 26.08 51.712 26.144C51.904 26.208 51.968 26.144 51.904 26.016C51.776 25.76 52.736 24.608 53.056 24.608C53.184 24.608 53.76 24.16 54.336 23.648C54.976 23.136 55.552 22.752 55.744 22.816C55.936 22.944 55.936 22.944 55.872 22.816C55.616 22.56 57.6 20.704 57.92 20.896C58.048 20.96 58.112 20.896 58.112 20.704C58.112 20.576 58.24 20.448 58.432 20.448C58.56 20.448 59.072 20.064 59.52 19.68C60.352 18.976 62.4 17.696 62.976 17.504C63.104 17.504 63.424 17.376 63.68 17.312C64.832 16.864 65.152 16.864 65.984 17.248C67.52 17.952 69.376 19.488 69.888 20.448C70.784 22.24 70.336 26.336 68.672 31.072C67.904 33.248 67.968 33.312 69.056 33.376C69.632 33.44 70.08 33.376 70.08 33.184C70.08 32.992 70.272 32.928 70.592 32.992C70.912 33.056 71.168 33.056 71.168 32.992C71.168 32.736 72.576 32.608 75.072 32.544C75.968 32.544 76.608 32.416 76.544 32.288C76.48 32.16 76.928 32.096 77.568 32.096C78.272 32.096 79.872 32.032 81.152 32.032C83.2 31.968 83.52 32.032 83.584 32.416C83.648 32.8 83.52 32.928 82.752 32.928C82.24 32.928 80.512 33.12 78.912 33.312C75.136 33.888 75.072 33.888 72.128 34.592C70.784 34.912 69.056 35.296 68.352 35.488C67.264 35.68 67.008 35.936 66.688 36.64C66.496 37.088 65.792 38.688 65.152 40.096C64.512 41.504 63.936 42.72 63.936 42.784C63.936 42.976 58.24 54.432 56.32 58.016C54.72 61.088 51.072 66.912 49.92 68.128L49.28 68.768L48.96 68.128C48.448 67.296 48.576 66.656 49.472 63.712C50.496 60.128 51.456 57.632 51.904 57.248C52.096 56.992 52.224 56.8 52.16 56.736C51.904 56.48 56.896 45.6 57.344 45.472C57.472 45.408 57.536 45.28 57.408 45.152C57.216 44.832 57.984 43.424 58.24 43.68C58.368 43.744 58.368 43.616 58.24 43.36C58.112 43.104 58.24 42.656 58.56 42.336C58.816 42.016 58.944 41.824 58.88 41.824C58.752 41.824 59.136 40.864 59.648 39.712C60.736 37.28 60.736 37.28 57.728 38.304C55.424 39.072 51.648 40.16 51.2 40.16C51.072 40.16 50.624 40.288 50.176 40.48C49.728 40.608 49.216 40.8 48.96 40.8C48.704 40.864 47.808 41.12 46.912 41.44C45.248 42.016 44.096 42.336 43.008 42.528C42.688 42.592 42.24 42.784 41.92 43.04C40.96 43.616 32.96 51.872 26.752 58.528C25.92 59.424 24.832 60.576 24.384 61.024C23.936 61.536 23.488 62.176 23.36 62.432C23.232 62.688 23.04 62.88 22.912 62.88C22.784 62.88 22.016 63.712 21.184 64.736C20.352 65.76 19.456 66.784 19.264 67.04C19.008 67.296 17.92 68.448 16.896 69.664C15.808 70.88 14.656 72.288 14.272 72.736C13.888 73.184 12.992 74.144 12.288 74.912C11.52 75.68 10.944 76.384 10.944 76.448C10.944 76.576 10.368 77.28 9.728 78.048C9.024 78.752 8 79.904 7.424 80.544C6.848 81.248 6.208 81.76 5.952 81.76C5.696 81.76 5.056 81.184 4.416 80.48C3.776 79.712 3.328 78.944 3.392 78.624C3.456 77.984 6.208 73.696 6.592 73.696C6.656 73.696 6.784 73.568 6.784 73.376C6.784 73.184 7.232 72.544 7.744 71.968C8.256 71.392 8.768 70.816 8.768 70.752C8.832 70.624 8.96 70.56 9.088 70.624C9.216 70.624 9.28 70.56 9.152 70.432C9.088 70.304 9.408 69.728 9.92 69.152C10.56 68.32 10.816 68.192 11.008 68.512C11.2 68.768 11.264 68.704 11.136 68.384C10.88 67.744 11.2 67.04 11.648 67.04C11.904 67.04 12.224 66.72 12.352 66.336C12.48 65.888 12.736 65.696 12.928 65.824C13.12 65.952 13.184 65.888 13.056 65.696C12.736 65.184 14.208 63.712 14.912 63.84C15.36 63.968 15.36 63.904 15.104 63.584C14.72 63.136 14.784 63.072 16.32 61.344C16.576 61.088 17.024 60.512 17.28 60.192C17.472 59.872 17.792 59.616 17.92 59.68C18.048 59.808 18.304 59.488 18.56 59.04C18.816 58.592 19.136 58.08 19.328 57.824C19.52 57.632 20.16 56.928 20.736 56.288C21.312 55.648 21.76 55.2 21.76 55.328C21.76 55.456 21.888 55.328 22.08 55.008C22.336 54.624 22.464 54.56 22.848 54.88C23.232 55.2 23.232 55.2 22.912 54.752C22.592 54.368 22.592 54.176 22.848 53.856C23.04 53.664 23.424 53.472 23.616 53.472C23.872 53.472 23.936 53.344 23.872 53.216C23.68 52.896 24.384 52.32 24.704 52.576C24.832 52.64 24.832 52.64 24.704 52.448C24.512 52.128 28.032 48.16 28.48 48.288C28.672 48.288 28.8 48.032 28.864 47.712C28.928 47.328 28.928 47.072 28.864 47.072C28.736 47.072 20.544 49.696 17.344 50.784C16.256 51.168 15.168 51.616 15.04 51.744C14.848 51.872 14.592 52 14.4 52.064C13.888 52.128 12.992 52.384 11.84 52.896C11.2 53.216 10.496 53.472 10.24 53.472C9.984 53.472 9.536 53.6 9.216 53.856C8.576 54.24 1.728 57.056 1.408 57.056ZM48.704 36.448L47.424 37.6L48.32 37.344C48.832 37.216 49.216 37.152 49.216 37.28C49.216 37.344 49.408 37.28 49.6 37.152C49.792 37.088 50.112 36.96 50.368 36.896C50.56 36.896 51.584 36.704 52.544 36.448C54.72 35.872 58.432 35.104 60.8 34.72C61.696 34.592 62.016 34.4 62.336 33.696C63.168 32.16 64.128 29.792 64.512 28.384C64.704 27.68 65.024 27.104 65.152 27.104C65.344 27.104 65.344 27.04 65.28 26.912C65.152 26.848 65.216 26.4 65.408 25.888C65.536 25.376 65.664 24.8 65.728 24.544C65.792 24.224 65.92 23.904 66.048 23.712C66.24 23.392 65.6 22.816 65.344 23.136C65.088 23.456 62.848 24.864 62.592 24.864C62.464 24.864 62.272 24.992 62.208 25.056C62.208 25.184 61.12 26.016 59.904 26.976C58.048 28.384 56.32 29.792 50.816 34.592C50.368 34.976 49.408 35.808 48.704 36.448ZM65.344 8.032C64.768 8.8 64 9.696 63.616 10.08C62.976 10.848 62.976 10.912 62.912 12.064C62.848 12.704 62.208 13.088 61.824 12.704C61.44 12.32 61.632 10.208 62.144 8.672C62.976 6.176 65.856 2.272 67.776 1.12C68.544 0.607994 68.544 0.671997 68.992 1.43999C69.184 1.952 69.376 2.464 69.376 2.656C69.376 2.91199 67.2 6.048 66.624 6.496C66.56 6.56 65.984 7.264 65.344 8.032ZM74.428 47.456C74.876 47.968 75.132 48.48 75.068 48.8C74.94 49.312 75.132 49.248 75.836 48.672C78.076 46.88 79.612 45.984 80.38 45.984C80.572 45.984 81.468 46.624 82.428 47.392L84.156 48.864H86.716C88.124 48.864 89.276 48.8 89.276 48.736C89.212 48.224 89.34 48.096 89.596 48.416C89.788 48.8 89.916 48.8 90.3 48.48C90.492 48.288 90.684 48.224 90.684 48.352C90.684 48.48 90.876 48.416 91.004 48.288C91.196 48.096 91.516 48.032 91.708 48.096C91.9 48.16 92.156 48.096 92.22 47.904C92.348 47.776 92.604 47.648 92.86 47.648C93.052 47.648 93.436 47.456 93.692 47.2C94.204 46.624 95.42 46.688 95.42 47.264C95.42 48.16 91.58 51.232 89.404 52.064C88.636 52.32 87.42 52.64 86.716 52.768C85.244 52.96 84.86 52.768 82.172 50.784C81.788 50.528 81.276 50.4 80.892 50.528C78.652 51.104 70.14 59.616 66.556 64.928C65.852 66.016 65.468 66.144 64.956 65.632C64.764 65.44 64.636 64.928 64.636 64.544C64.636 64.096 64.508 63.712 64.38 63.584C64.188 63.52 64.06 63.136 64.06 62.752C64.06 62.368 63.932 61.792 63.804 61.536C63.42 60.832 64.06 59.616 68.796 52.512C69.756 50.976 70.844 49.44 71.164 49.056C72.188 47.712 73.788 46.112 73.724 46.368C73.66 46.56 73.98 47.008 74.428 47.456ZM99.8355 54.688C99.8355 54.496 99.9635 54.368 100.156 54.368C100.284 54.368 100.348 54.496 100.284 54.688C100.156 54.816 100.028 54.944 99.9635 54.944C99.8995 54.944 99.8355 54.816 99.8355 54.688ZM109.692 44.64C109.564 44.384 109.692 44.384 110.332 44.704C111.548 45.344 113.212 48.096 113.404 49.632C113.596 52.128 111.548 55.456 108.412 57.632C105.276 59.808 101.5 60.64 99.3875 59.552C98.3635 59.04 98.2995 59.04 97.9795 59.488C97.5315 60.128 97.2755 61.472 97.4035 62.624C97.4675 63.456 97.5955 63.648 98.5555 63.904C99.1315 64.032 99.5155 64.288 99.3875 64.352C99.3235 64.48 99.5795 64.48 100.092 64.288C100.54 64.16 100.988 64.16 101.052 64.224C101.436 64.608 104.124 63.648 107.452 62.048C108.028 61.792 108.604 61.6 108.796 61.728C108.988 61.792 108.988 61.728 108.86 61.6C108.796 61.344 108.988 61.152 109.372 60.96C109.756 60.832 110.14 60.576 110.204 60.448C110.332 60.32 110.78 60.128 111.228 60C111.676 59.872 112.06 59.68 112.06 59.552C112.06 59.36 112.252 59.296 112.444 59.424C112.7 59.488 112.892 59.424 112.892 59.296C112.892 59.168 113.34 58.784 113.916 58.464C114.492 58.08 115.132 57.632 115.324 57.44C115.516 57.248 115.836 57.184 115.964 57.248C116.092 57.312 116.22 57.248 116.22 57.12C116.22 56.928 116.412 56.8 116.604 56.8C116.86 56.8 117.052 56.672 117.052 56.544C117.052 56.416 117.564 56.096 118.204 55.84C118.844 55.584 119.74 55.136 120.188 54.752C121.02 54.112 122.428 53.536 122.492 53.792C122.492 53.856 122.812 53.664 123.132 53.408C123.452 53.088 123.836 52.96 124.028 53.088C124.22 53.216 124.284 53.152 124.156 52.96C123.9 52.576 124.988 52 125.5 52.192C125.756 52.256 125.884 52.192 125.884 52C125.82 51.808 125.948 51.68 126.14 51.744C126.332 51.808 126.46 51.68 126.46 51.488C126.46 51.296 126.588 51.232 126.652 51.36C126.78 51.424 127.164 51.36 127.484 51.104C127.868 50.848 128.316 50.784 128.507 50.848C128.636 50.976 128.7 50.912 128.636 50.784C128.507 50.592 128.636 50.4 128.828 50.336C129.083 50.208 129.276 50.336 129.276 50.656C129.212 50.912 128.507 51.68 127.612 52.384C126.716 53.024 125.948 53.728 125.948 53.856C125.948 53.92 125.82 54.048 125.692 54.048C125.5 54.048 124.412 54.752 123.26 55.648C121.404 57.056 115.644 60.96 108.988 65.44C108.028 66.08 106.876 66.848 106.428 67.104C106.044 67.424 105.595 67.616 105.468 67.616C105.34 67.616 104.508 68 103.74 68.448C102.076 69.28 99.9635 69.664 98.5555 69.28C97.5315 69.088 96.0595 68.064 95.6755 67.36C95.0355 66.144 94.4595 62.624 94.4595 59.552C94.4595 56.672 94.5235 56.224 95.2275 54.752C96.1235 52.768 97.9155 50.4 98.2995 50.592C98.4275 50.72 98.4275 50.656 98.3635 50.464C98.2355 50.336 99.0675 49.376 100.22 48.352C102.396 46.368 105.66 44.448 106.556 44.704C106.812 44.768 107.004 44.704 106.94 44.576C106.684 44.256 109.116 44.32 109.564 44.704C109.884 44.96 109.884 44.96 109.692 44.64ZM110.972 50.016C110.972 49.504 110.332 49.504 108.348 50.016C106.3 50.528 102.844 52.96 101.244 54.944C100.86 55.456 100.924 55.456 102.332 55.328C103.164 55.264 104.252 55.072 104.764 54.88C105.276 54.752 105.66 54.688 105.66 54.752C105.66 54.816 106.108 54.56 106.62 54.176C107.132 53.792 107.644 53.472 107.772 53.472C108.22 53.472 110.972 50.528 110.972 50.016ZM123.194 61.6C123.194 60.96 123.066 60.448 122.938 60.32C122.298 59.936 122.618 57.632 123.451 55.84C124.41 53.856 128.699 49.12 129.275 49.504C129.467 49.568 129.531 49.568 129.531 49.376C129.339 48.672 133.883 46.048 135.547 45.856C135.675 45.856 135.995 45.792 136.251 45.664C137.211 45.344 139.195 45.216 140.283 45.536C141.691 45.984 144.251 48.352 144.507 49.504C144.571 49.952 145.147 50.784 145.851 51.424C146.875 52.448 147.067 52.768 147.067 53.792C147.067 54.496 146.619 56.032 145.915 57.76C145.339 59.296 144.891 60.576 144.955 60.64C145.019 60.768 150.459 58.272 152.699 57.12C153.403 56.736 153.723 56.672 153.531 56.864C153.403 57.12 153.531 57.12 153.851 56.8C154.427 56.416 156.283 55.456 156.603 55.456C156.731 55.456 156.731 55.648 156.603 55.84C156.411 56.16 157.051 55.712 157.819 55.008C158.011 54.816 158.395 54.624 158.651 54.624C158.971 54.624 159.227 54.56 159.354 54.432C159.547 54.24 160.187 54.048 160.826 53.984C161.019 53.984 161.211 53.856 161.339 53.6C161.403 53.408 162.107 53.216 162.875 53.088C163.643 52.96 164.155 52.768 164.091 52.64C163.963 52.384 164.987 52.576 165.307 52.832C165.627 53.088 164.795 53.92 163.259 54.944C162.299 55.584 161.467 56.224 161.467 56.352C161.467 56.48 161.275 56.544 161.083 56.544C160.891 56.544 160.635 56.672 160.571 56.8C160.507 57.056 157.179 59.616 156.923 59.616C156.859 59.616 155.771 60.384 154.491 61.28C153.211 62.176 152.123 62.88 151.995 62.816C151.931 62.752 151.675 62.88 151.483 63.072C151.291 63.328 150.843 63.648 150.395 63.904C144.827 66.848 144.507 66.912 143.419 66.016C142.395 65.248 141.051 60.768 141.307 59.04C141.371 58.592 141.307 58.272 141.179 58.272C141.051 58.272 139.963 58.912 138.811 59.68C137.659 60.512 136.379 61.344 135.995 61.6C135.611 61.856 135.099 62.24 134.97 62.368C132.987 64.032 128.187 66.272 126.459 66.272C125.434 66.272 124.09 65.056 123.834 63.904C123.77 63.392 123.578 62.88 123.451 62.816C123.322 62.688 123.194 62.176 123.194 61.6ZM133.499 54.112C131.771 55.392 127.355 59.808 127.355 60.192C127.355 60.512 127.355 60.512 128.635 60.064C129.211 59.872 130.491 59.296 131.515 58.848C132.475 58.4 133.435 58.08 133.562 58.144C133.691 58.272 133.755 58.208 133.627 58.08C133.435 57.696 135.035 56.736 135.419 56.992C135.611 57.12 135.675 57.12 135.611 56.928C135.483 56.8 135.611 56.48 135.803 56.288C136.059 56.096 136.251 56.032 136.251 56.16C136.251 56.224 136.507 56.096 136.827 55.776C137.147 55.456 137.531 55.2 137.659 55.2C137.787 55.2 137.979 55.2 138.043 55.2C138.107 55.136 138.555 54.816 139.003 54.304C139.515 53.856 140.091 53.536 140.283 53.664C140.539 53.728 140.603 53.664 140.539 53.536C140.475 53.408 140.731 53.088 141.115 52.768C142.075 52.064 142.715 50.848 142.203 50.656C141.115 50.208 135.995 52.256 133.499 54.112ZM180.582 66.08C179.75 65.632 179.43 65.184 178.854 63.712C177.766 60.704 177.51 57.632 178.214 55.776C178.982 53.792 181.478 50.72 183.718 49.12C186.278 47.264 189.862 45.6 192.614 45.024C194.79 44.576 197.03 44.64 197.35 45.088C197.478 45.344 197.542 45.408 197.606 45.28C197.606 44.832 199.142 46.176 200.23 47.52C200.806 48.288 201.382 48.928 201.51 48.928C201.638 48.992 202.022 48.352 202.406 47.648C204.454 43.488 207.718 38.304 208.166 38.56C208.294 38.688 208.358 38.56 208.23 38.368C208.166 38.112 208.23 37.792 208.486 37.536C208.678 37.344 209.254 36.576 209.83 35.808C212.454 32.288 216.806 26.976 217.19 26.848C217.382 26.784 217.574 26.592 217.574 26.4C217.574 25.952 222.438 21.216 222.95 21.216C223.206 21.216 223.334 21.088 223.27 20.96C223.142 20.832 223.59 20.32 224.23 19.936L225.318 19.232L226.47 20C227.302 20.576 227.558 20.896 227.558 21.536C227.558 22.56 227.43 22.688 222.502 29.28C219.174 33.76 210.918 45.664 210.918 46.048C210.918 46.112 210.406 47.008 209.766 48.032C208.678 49.824 206.822 53.344 205.862 55.648C205.606 56.16 205.094 57.312 204.71 58.144C203.622 60.576 201.83 67.104 201.958 68.064C202.022 68.128 202.214 68.256 202.534 68.256C203.11 68.32 205.414 67.296 205.67 66.848C205.798 66.72 205.926 66.656 205.926 66.784C205.926 66.912 206.118 66.784 206.438 66.528C207.526 65.568 207.846 65.312 208.294 65.312C208.486 65.312 208.614 65.248 208.55 65.056C208.422 64.928 208.55 64.8 208.742 64.8C208.998 64.8 209.254 64.608 209.318 64.352C209.446 64.16 209.638 63.968 209.83 63.968C210.022 63.968 210.342 63.712 210.534 63.392C210.79 63.072 211.046 62.88 211.238 63.008C211.43 63.136 211.494 63.072 211.366 62.88C211.238 62.752 211.43 62.432 211.814 62.24C212.134 62.048 212.582 61.728 212.774 61.536C212.966 61.344 213.35 61.152 213.542 61.152C213.734 61.152 213.99 61.024 214.118 60.832C214.246 60.64 214.182 60.64 213.926 60.768C213.734 60.896 213.798 60.704 214.054 60.384C214.374 60.064 214.63 59.872 214.694 59.936C214.758 60 215.142 59.744 215.59 59.36C215.974 58.976 216.422 58.656 216.614 58.656C216.806 58.656 217.254 58.336 217.574 57.888C217.894 57.504 218.086 57.312 217.958 57.568C217.83 57.824 217.958 57.824 218.214 57.504C218.406 57.248 218.726 56.992 218.854 56.992C218.982 56.992 219.238 56.736 219.43 56.48C219.622 56.16 220.07 55.904 220.326 55.904C220.646 55.904 220.838 55.776 220.774 55.648C220.646 55.52 220.902 55.264 221.286 55.2C221.67 55.072 221.926 54.88 221.862 54.752C221.734 54.624 221.862 54.496 221.99 54.496C222.182 54.496 222.566 54.24 222.822 53.92C223.398 53.152 224.102 53.024 224.102 53.664C224.166 54.112 223.846 54.496 221.222 57.568C219.046 60.064 209.638 69.344 207.718 70.88C206.374 71.968 204.582 72.736 203.302 72.8C202.022 72.864 201.894 72.864 200.614 71.456C199.91 70.688 198.822 69.216 198.31 68.256C197.414 66.72 197.286 66.144 197.222 64.416C197.094 62.176 197.734 58.592 198.63 56.224C198.822 55.712 198.31 56.096 195.942 58.144C193.958 59.872 191.526 61.728 191.334 61.728C191.206 61.728 190.694 62.112 190.118 62.56C189.478 63.008 188.902 63.392 188.71 63.392C188.582 63.392 188.454 63.52 188.454 63.648C188.454 63.776 188.006 64.032 187.494 64.224C187.046 64.48 186.534 64.672 186.47 64.8C186.15 65.248 183.462 66.4 182.566 66.528C181.926 66.592 181.286 66.464 180.582 66.08ZM185.126 56.032C183.846 57.248 181.734 59.744 181.734 60C181.734 60.128 182.054 60.192 182.438 60.192C182.822 60.192 183.078 60.128 183.014 60.064C182.822 59.744 186.47 58.08 186.79 58.272C186.982 58.4 187.046 58.336 186.918 58.208C186.79 58.016 187.11 57.696 187.558 57.44C188.582 56.928 188.774 56.928 188.518 57.376C188.39 57.568 188.454 57.632 188.582 57.504C188.71 57.376 188.838 57.184 188.838 57.056C188.774 56.736 189.798 56.16 190.118 56.352C190.246 56.416 190.438 56.288 190.502 56.096C190.63 55.84 191.078 55.52 191.59 55.328C192.102 55.2 192.678 54.88 192.87 54.624C193.062 54.432 193.51 54.24 193.894 54.24C194.214 54.24 194.534 54.112 194.534 53.984C194.534 53.792 194.598 53.728 194.726 53.728C194.918 53.792 196.838 52.96 198.438 52.128C198.886 51.936 199.398 51.744 199.59 51.808C199.718 51.872 199.974 51.68 200.038 51.424C200.166 50.848 198.694 50.08 197.734 50.208C197.414 50.272 196.646 50.4 195.942 50.464C193.126 50.912 187.494 53.728 185.126 56.032ZM224.898 54.688C224.898 54.496 225.026 54.368 225.218 54.368C225.346 54.368 225.41 54.496 225.346 54.688C225.218 54.816 225.09 54.944 225.026 54.944C224.962 54.944 224.898 54.816 224.898 54.688ZM234.754 44.64C234.626 44.384 234.754 44.384 235.394 44.704C236.61 45.344 238.274 48.096 238.466 49.632C238.658 52.128 236.61 55.456 233.474 57.632C230.338 59.808 226.562 60.64 224.45 59.552C223.426 59.04 223.362 59.04 223.042 59.488C222.594 60.128 222.338 61.472 222.466 62.624C222.53 63.456 222.658 63.648 223.618 63.904C224.194 64.032 224.578 64.288 224.45 64.352C224.386 64.48 224.642 64.48 225.154 64.288C225.602 64.16 226.05 64.16 226.114 64.224C226.498 64.608 229.186 63.648 232.514 62.048C233.09 61.792 233.666 61.6 233.858 61.728C234.05 61.792 234.05 61.728 233.922 61.6C233.858 61.344 234.05 61.152 234.434 60.96C234.818 60.832 235.202 60.576 235.266 60.448C235.394 60.32 235.842 60.128 236.29 60C236.738 59.872 237.122 59.68 237.122 59.552C237.122 59.36 237.314 59.296 237.506 59.424C237.762 59.488 237.954 59.424 237.954 59.296C237.954 59.168 238.402 58.784 238.978 58.464C239.554 58.08 240.194 57.632 240.386 57.44C240.578 57.248 240.898 57.184 241.026 57.248C241.154 57.312 241.282 57.248 241.282 57.12C241.282 56.928 241.474 56.8 241.666 56.8C241.922 56.8 242.114 56.672 242.114 56.544C242.114 56.416 242.626 56.096 243.266 55.84C243.906 55.584 244.802 55.136 245.25 54.752C246.082 54.112 247.49 53.536 247.554 53.792C247.554 53.856 247.874 53.664 248.194 53.408C248.514 53.088 248.898 52.96 249.09 53.088C249.282 53.216 249.346 53.152 249.218 52.96C248.962 52.576 250.05 52 250.562 52.192C250.818 52.256 250.946 52.192 250.946 52C250.882 51.808 251.01 51.68 251.202 51.744C251.394 51.808 251.522 51.68 251.522 51.488C251.522 51.296 251.65 51.232 251.714 51.36C251.842 51.424 252.226 51.36 252.546 51.104C252.93 50.848 253.378 50.784 253.57 50.848C253.698 50.976 253.762 50.912 253.698 50.784C253.57 50.592 253.698 50.4 253.89 50.336C254.146 50.208 254.338 50.336 254.338 50.656C254.274 50.912 253.57 51.68 252.674 52.384C251.778 53.024 251.01 53.728 251.01 53.856C251.01 53.92 250.882 54.048 250.754 54.048C250.562 54.048 249.474 54.752 248.322 55.648C246.466 57.056 240.706 60.96 234.05 65.44C233.09 66.08 231.938 66.848 231.49 67.104C231.106 67.424 230.658 67.616 230.53 67.616C230.402 67.616 229.57 68 228.802 68.448C227.138 69.28 225.026 69.664 223.618 69.28C222.594 69.088 221.122 68.064 220.738 67.36C220.098 66.144 219.522 62.624 219.522 59.552C219.522 56.672 219.586 56.224 220.29 54.752C221.186 52.768 222.978 50.4 223.362 50.592C223.49 50.72 223.49 50.656 223.426 50.464C223.298 50.336 224.13 49.376 225.282 48.352C227.458 46.368 230.722 44.448 231.618 44.704C231.874 44.768 232.066 44.704 232.002 44.576C231.746 44.256 234.178 44.32 234.626 44.704C234.946 44.96 234.946 44.96 234.754 44.64ZM236.034 50.016C236.034 49.504 235.394 49.504 233.41 50.016C231.362 50.528 227.906 52.96 226.306 54.944C225.922 55.456 225.986 55.456 227.394 55.328C228.226 55.264 229.314 55.072 229.826 54.88C230.338 54.752 230.722 54.688 230.722 54.752C230.722 54.816 231.17 54.56 231.682 54.176C232.194 53.792 232.706 53.472 232.834 53.472C233.282 53.472 236.034 50.528 236.034 50.016ZM281.58 71.776C281.964 69.536 284.524 63.648 287.34 58.656C288.236 57.056 292.332 50.72 293.228 49.504C294.06 48.352 298.54 42.464 298.732 42.144C298.86 42.016 299.628 41.056 300.396 40.096C301.164 39.072 302.188 37.856 302.7 37.28C303.148 36.768 303.916 35.808 304.428 35.232C304.94 34.592 305.772 33.632 306.284 33.056C306.86 32.416 307.308 31.84 307.372 31.712C307.372 31.584 307.692 31.392 308.012 31.392C308.268 31.328 308.524 31.136 308.524 31.008C308.524 30.56 309.676 29.536 309.932 29.792C309.996 29.856 310.06 29.856 310.06 29.664C309.932 29.088 310.06 28.704 310.38 28.896C310.572 28.96 310.892 28.832 311.084 28.576C311.404 28.128 311.532 28.128 311.916 28.448C312.3 28.768 312.3 28.704 311.852 28.192C311.596 27.808 311.468 27.616 311.66 27.68C311.852 27.808 311.98 27.744 311.98 27.552C311.98 27.36 312.748 26.4 313.708 25.504C314.604 24.608 315.308 24.096 315.18 24.416C314.988 24.928 314.988 24.928 315.5 24.48C315.82 24.224 316.14 24.096 316.268 24.16C316.396 24.288 316.46 24.224 316.46 24.032C316.46 23.904 316.78 23.392 317.228 23.008C317.676 22.624 317.804 22.304 317.612 22.304C317.292 22.304 317.292 22.24 317.548 21.92C317.74 21.664 317.996 21.472 318.124 21.472C318.252 21.472 318.764 21.216 319.276 20.896C320.044 20.448 320.044 20.384 319.532 20.512C318.892 20.704 318.828 20.704 319.212 20.32C319.404 20.064 319.66 19.872 319.788 20C319.916 20.064 320.044 19.936 320.044 19.68C320.044 19.424 320.172 19.296 320.3 19.424C320.492 19.488 320.492 19.744 320.428 20C320.3 20.256 320.428 20.32 320.684 20.192C321.068 20.064 321.068 19.936 320.876 19.488C320.684 19.104 320.684 18.976 320.94 19.04C321.132 19.104 321.26 18.976 321.26 18.848C321.196 18.656 321.388 18.528 321.58 18.528C321.772 18.528 321.9 18.656 321.772 18.848C321.708 18.976 321.9 18.912 322.22 18.592C322.604 18.272 322.796 17.888 322.732 17.696C322.54 17.248 322.86 17.248 323.308 17.696C323.564 17.952 323.692 17.888 323.692 17.568C323.692 17.312 323.82 16.992 324.012 16.864C324.204 16.736 324.268 16.864 324.14 17.12C324.012 17.44 324.076 17.504 324.332 17.44C324.908 17.248 326.06 18.784 325.932 19.68C325.868 20.512 325.74 20.64 318.892 27.616C317.868 28.704 317.036 29.664 317.036 29.792C317.036 29.856 316.14 30.88 315.116 31.904C314.092 32.992 312.94 34.208 312.556 34.72C312.172 35.232 310.636 37.152 309.1 39.008C307.564 40.928 305.516 43.424 304.62 44.64C303.724 45.856 302.892 46.944 302.828 47.008C302.316 47.52 296.364 56.032 292.204 62.432C289.452 66.528 287.148 69.984 287.084 70.048C286.764 70.304 285.676 71.968 285.676 72.16C285.676 72.352 290.54 71.84 290.988 71.584C291.116 71.456 291.18 71.52 291.18 71.648C291.18 71.776 291.436 71.904 291.756 71.904C292.012 71.904 292.204 71.776 292.14 71.648C292.076 71.52 292.332 71.456 292.78 71.456C293.228 71.392 293.868 71.392 294.316 71.328C294.764 71.264 295.084 71.328 295.084 71.52C295.084 71.712 295.148 71.712 295.34 71.456C295.468 71.264 295.788 71.136 296.044 71.264C296.3 71.328 296.428 71.328 296.364 71.2C296.236 71.072 296.62 70.944 297.068 70.944C297.58 70.944 298.604 70.88 299.372 70.816C300.14 70.688 302.06 70.56 303.66 70.496C305.26 70.368 307.244 70.24 307.948 70.176C308.716 70.112 309.548 70.24 309.74 70.368C309.932 70.624 310.06 70.56 310.06 70.368C310.06 70.176 310.188 70.048 310.38 70.048C310.508 70.048 310.572 70.24 310.444 70.432C310.252 70.688 310.316 70.688 310.636 70.432C310.892 70.24 311.148 70.112 311.276 70.24C311.34 70.304 311.596 70.304 311.852 70.112C312.044 69.92 312.3 69.856 312.364 69.984C312.62 70.176 317.548 70.24 317.868 70.048C318.06 69.92 318.636 69.92 319.276 70.048C319.98 70.176 320.364 70.176 320.364 69.984C320.364 69.792 320.428 69.792 320.62 69.92C320.748 70.112 321.516 70.176 322.412 70.048C323.244 69.984 324.14 69.984 324.396 70.112C324.716 70.176 325.548 70.24 326.252 70.112C327.148 70.048 327.596 70.048 327.468 70.24C327.404 70.368 327.596 70.496 327.916 70.496C328.236 70.432 328.94 70.496 329.516 70.624C330.028 70.752 330.796 70.944 331.244 71.008C331.692 71.136 332.012 71.328 332.012 71.648C332.012 72.16 331.692 72.16 328.876 72.16C325.548 72.16 320.876 72.48 318.124 72.992C317.612 73.12 316.716 73.248 316.14 73.248C315.18 73.376 313.772 73.568 312.556 73.76C312.172 73.824 311.34 73.952 310.764 74.08C310.124 74.144 309.356 74.272 308.972 74.336C308.588 74.4 307.692 74.528 306.988 74.592C306.348 74.72 305.388 74.912 304.876 75.04C304.428 75.168 303.98 75.232 303.916 75.168C303.788 75.104 301.612 75.424 298.924 75.872C296.3 76.32 293.356 76.768 292.46 76.832C291.564 76.96 290.732 77.088 290.604 77.152C290.476 77.216 289.068 77.472 287.404 77.728C284.076 78.176 283.564 78.304 282.732 78.496C282.412 78.56 281.388 78.752 280.364 78.944C277.036 79.52 273.58 80.352 271.916 81.056C269.484 81.952 268.844 82.08 268.524 81.632C268.332 81.44 268.076 80.736 267.948 80.096C267.692 79.008 267.756 78.816 268.204 78.304C268.46 77.984 268.716 77.856 268.716 77.984C268.716 78.112 268.844 78.048 269.036 77.728C269.356 77.216 270.956 76.32 270.956 76.64C270.956 76.768 271.084 76.704 271.212 76.448C271.468 76.064 272.236 75.744 276.076 74.464C278.956 73.504 278.828 73.568 278.508 74.016C278.38 74.272 278.38 74.272 278.764 74.016C278.956 73.824 279.276 73.76 279.404 73.888C279.532 74.016 279.532 73.952 279.404 73.76C279.276 73.504 279.404 73.376 279.788 73.376C280.108 73.376 280.428 73.44 280.492 73.44C280.748 73.696 281.452 72.672 281.58 71.776ZM313.516 26.016C313.132 26.464 313.004 26.656 313.132 26.528C313.324 26.4 313.644 26.336 313.9 26.4C314.284 26.528 314.284 26.464 314.028 26.272C313.708 26.08 313.772 25.952 314.284 25.824C314.732 25.696 314.796 25.568 314.54 25.44C314.348 25.376 313.9 25.632 313.516 26.016ZM312.556 27.168C312.428 27.296 312.3 27.488 312.3 27.616C312.3 28 312.492 27.936 312.684 27.424C312.748 27.168 312.748 27.104 312.556 27.168ZM309.228 30.368C309.1 30.368 308.972 30.496 308.972 30.624C308.972 30.816 309.036 30.944 309.1 30.944C309.164 30.944 309.292 30.816 309.356 30.624C309.484 30.496 309.42 30.368 309.228 30.368ZM330.069 61.6C330.069 60.96 329.941 60.448 329.813 60.32C329.173 59.936 329.493 57.632 330.326 55.84C331.285 53.856 335.574 49.12 336.15 49.504C336.342 49.568 336.406 49.568 336.406 49.376C336.214 48.672 340.758 46.048 342.422 45.856C342.55 45.856 342.87 45.792 343.126 45.664C344.086 45.344 346.07 45.216 347.158 45.536C348.566 45.984 351.126 48.352 351.382 49.504C351.446 49.952 352.022 50.784 352.726 51.424C353.75 52.448 353.942 52.768 353.942 53.792C353.942 54.496 353.494 56.032 352.79 57.76C352.214 59.296 351.766 60.576 351.83 60.64C351.894 60.768 357.334 58.272 359.574 57.12C360.278 56.736 360.598 56.672 360.406 56.864C360.278 57.12 360.406 57.12 360.726 56.8C361.302 56.416 363.158 55.456 363.478 55.456C363.606 55.456 363.606 55.648 363.478 55.84C363.286 56.16 363.926 55.712 364.694 55.008C364.886 54.816 365.27 54.624 365.526 54.624C365.846 54.624 366.102 54.56 366.229 54.432C366.422 54.24 367.062 54.048 367.701 53.984C367.894 53.984 368.086 53.856 368.214 53.6C368.278 53.408 368.982 53.216 369.75 53.088C370.518 52.96 371.03 52.768 370.966 52.64C370.838 52.384 371.862 52.576 372.182 52.832C372.502 53.088 371.67 53.92 370.134 54.944C369.174 55.584 368.342 56.224 368.342 56.352C368.342 56.48 368.15 56.544 367.958 56.544C367.766 56.544 367.51 56.672 367.446 56.8C367.382 57.056 364.054 59.616 363.798 59.616C363.734 59.616 362.646 60.384 361.366 61.28C360.086 62.176 358.998 62.88 358.87 62.816C358.806 62.752 358.55 62.88 358.358 63.072C358.166 63.328 357.718 63.648 357.27 63.904C351.702 66.848 351.382 66.912 350.294 66.016C349.27 65.248 347.926 60.768 348.182 59.04C348.246 58.592 348.182 58.272 348.054 58.272C347.926 58.272 346.838 58.912 345.686 59.68C344.534 60.512 343.254 61.344 342.87 61.6C342.486 61.856 341.974 62.24 341.845 62.368C339.862 64.032 335.062 66.272 333.334 66.272C332.309 66.272 330.965 65.056 330.709 63.904C330.645 63.392 330.453 62.88 330.326 62.816C330.197 62.688 330.069 62.176 330.069 61.6ZM340.374 54.112C338.646 55.392 334.23 59.808 334.23 60.192C334.23 60.512 334.23 60.512 335.51 60.064C336.086 59.872 337.366 59.296 338.39 58.848C339.35 58.4 340.31 58.08 340.438 58.144C340.566 58.272 340.63 58.208 340.502 58.08C340.31 57.696 341.91 56.736 342.294 56.992C342.486 57.12 342.55 57.12 342.486 56.928C342.358 56.8 342.486 56.48 342.678 56.288C342.934 56.096 343.126 56.032 343.126 56.16C343.126 56.224 343.382 56.096 343.702 55.776C344.022 55.456 344.406 55.2 344.534 55.2C344.662 55.2 344.854 55.2 344.918 55.2C344.982 55.136 345.43 54.816 345.878 54.304C346.39 53.856 346.966 53.536 347.158 53.664C347.414 53.728 347.478 53.664 347.414 53.536C347.35 53.408 347.606 53.088 347.99 52.768C348.95 52.064 349.59 50.848 349.078 50.656C347.99 50.208 342.87 52.256 340.374 54.112ZM401.43 51.104C401.494 50.912 401.686 50.976 401.878 51.232C402.198 51.616 401.942 51.808 399.958 52.768C398.678 53.408 396.31 54.624 394.71 55.456C389.782 58.144 388.822 58.656 382.998 61.664C379.926 63.264 376.918 64.8 376.406 65.12C375.894 65.44 374.998 65.952 374.422 66.208C373.846 66.464 373.334 66.848 373.206 66.976C373.142 67.104 372.822 67.232 372.63 67.232C372.374 67.232 371.926 67.424 371.67 67.68C371.094 68.192 369.238 68.512 368.726 68.128C368.214 67.808 367.574 65.952 367.382 64.224L367.19 62.624L368.854 60.128C369.75 58.784 371.67 56.416 373.142 54.944C374.55 53.408 376.342 51.552 377.046 50.784C377.75 50.016 378.326 49.312 378.326 49.248C378.326 49.184 376.854 49.184 374.934 49.312C373.078 49.376 371.35 49.376 371.158 49.248C370.71 48.928 370.07 47.136 370.006 46.24C370.006 45.984 369.878 45.536 369.75 45.408C369.494 45.152 369.558 45.024 370.006 44.768C370.326 44.576 370.71 44.512 370.838 44.64C371.03 44.704 371.158 44.704 371.158 44.512C371.158 44.128 374.806 43.616 377.366 43.616C380.182 43.616 380.438 43.68 382.038 45.344C384.022 47.264 384.214 47.776 383.766 50.016C383.19 52.576 382.998 52.896 376.854 58.848C374.934 60.768 373.334 62.432 373.334 62.56C373.334 62.752 373.59 62.688 373.91 62.432C374.166 62.112 374.614 61.92 374.806 61.856C374.998 61.856 375.446 61.664 375.766 61.472C376.15 61.28 376.534 61.152 376.662 61.28C376.79 61.344 377.046 61.216 377.238 61.024C377.43 60.768 378.006 60.512 378.518 60.384C379.03 60.32 379.478 60.128 379.478 60C379.478 59.872 379.67 59.744 379.926 59.616C380.246 59.552 381.014 59.168 381.654 58.784C382.358 58.464 383.062 58.208 383.254 58.272C383.446 58.336 383.638 58.272 383.766 58.08C383.83 57.952 384.086 57.888 384.214 57.952C384.406 58.08 384.47 58.016 384.342 57.888C384.278 57.696 384.342 57.504 384.598 57.44C384.79 57.376 385.046 57.44 385.11 57.632C385.174 57.76 385.238 57.696 385.302 57.44C385.302 57.184 385.43 56.928 385.558 56.928C385.75 56.928 385.942 56.864 386.07 56.864C386.262 56.864 386.454 56.736 386.582 56.608C386.71 56.48 386.966 56.416 387.158 56.416C387.414 56.416 387.798 56.224 388.118 55.968C388.374 55.712 388.886 55.52 389.27 55.456C389.718 55.456 390.038 55.328 390.038 55.2C390.038 55.072 390.102 55.072 390.294 55.136C390.422 55.264 390.55 55.2 390.614 55.008C390.678 54.816 391.062 54.688 391.446 54.624C391.894 54.624 392.214 54.56 392.214 54.496C392.214 54.24 393.942 53.536 394.582 53.536C394.966 53.472 395.414 53.28 395.734 53.088C395.99 52.832 396.118 52.832 396.054 52.96C395.862 53.216 395.99 53.216 396.502 53.024C396.886 52.832 397.142 52.576 397.078 52.512C397.014 52.384 397.206 52.32 397.59 52.32C398.614 52.32 399.83 51.872 400.15 51.488C400.342 51.232 400.662 51.104 400.918 51.232C401.174 51.296 401.366 51.232 401.43 51.104ZM400.773 54.688C400.773 54.496 400.901 54.368 401.093 54.368C401.221 54.368 401.285 54.496 401.221 54.688C401.093 54.816 400.965 54.944 400.901 54.944C400.837 54.944 400.773 54.816 400.773 54.688ZM410.629 44.64C410.501 44.384 410.629 44.384 411.269 44.704C412.485 45.344 414.149 48.096 414.341 49.632C414.533 52.128 412.485 55.456 409.349 57.632C406.213 59.808 402.437 60.64 400.325 59.552C399.301 59.04 399.237 59.04 398.917 59.488C398.469 60.128 398.213 61.472 398.341 62.624C398.405 63.456 398.533 63.648 399.493 63.904C400.069 64.032 400.453 64.288 400.325 64.352C400.261 64.48 400.517 64.48 401.029 64.288C401.477 64.16 401.925 64.16 401.989 64.224C402.373 64.608 405.061 63.648 408.389 62.048C408.965 61.792 409.541 61.6 409.733 61.728C409.925 61.792 409.925 61.728 409.797 61.6C409.733 61.344 409.925 61.152 410.309 60.96C410.693 60.832 411.077 60.576 411.141 60.448C411.269 60.32 411.717 60.128 412.165 60C412.613 59.872 412.997 59.68 412.997 59.552C412.997 59.36 413.189 59.296 413.381 59.424C413.637 59.488 413.829 59.424 413.829 59.296C413.829 59.168 414.277 58.784 414.853 58.464C415.429 58.08 416.069 57.632 416.261 57.44C416.453 57.248 416.773 57.184 416.901 57.248C417.029 57.312 417.157 57.248 417.157 57.12C417.157 56.928 417.349 56.8 417.541 56.8C417.797 56.8 417.989 56.672 417.989 56.544C417.989 56.416 418.501 56.096 419.141 55.84C419.781 55.584 420.677 55.136 421.125 54.752C421.957 54.112 423.365 53.536 423.429 53.792C423.429 53.856 423.749 53.664 424.069 53.408C424.389 53.088 424.773 52.96 424.965 53.088C425.157 53.216 425.221 53.152 425.093 52.96C424.837 52.576 425.925 52 426.437 52.192C426.693 52.256 426.821 52.192 426.821 52C426.757 51.808 426.885 51.68 427.077 51.744C427.269 51.808 427.397 51.68 427.397 51.488C427.397 51.296 427.525 51.232 427.589 51.36C427.717 51.424 428.101 51.36 428.421 51.104C428.805 50.848 429.253 50.784 429.445 50.848C429.573 50.976 429.637 50.912 429.573 50.784C429.445 50.592 429.573 50.4 429.765 50.336C430.021 50.208 430.213 50.336 430.213 50.656C430.149 50.912 429.445 51.68 428.549 52.384C427.653 53.024 426.885 53.728 426.885 53.856C426.885 53.92 426.757 54.048 426.629 54.048C426.437 54.048 425.349 54.752 424.197 55.648C422.341 57.056 416.581 60.96 409.925 65.44C408.965 66.08 407.813 66.848 407.365 67.104C406.981 67.424 406.533 67.616 406.405 67.616C406.277 67.616 405.445 68 404.677 68.448C403.013 69.28 400.901 69.664 399.493 69.28C398.469 69.088 396.997 68.064 396.613 67.36C395.973 66.144 395.397 62.624 395.397 59.552C395.397 56.672 395.461 56.224 396.165 54.752C397.061 52.768 398.853 50.4 399.237 50.592C399.365 50.72 399.365 50.656 399.301 50.464C399.173 50.336 400.005 49.376 401.157 48.352C403.333 46.368 406.597 44.448 407.493 44.704C407.749 44.768 407.941 44.704 407.877 44.576C407.621 44.256 410.053 44.32 410.501 44.704C410.821 44.96 410.821 44.96 410.629 44.64ZM411.909 50.016C411.909 49.504 411.269 49.504 409.285 50.016C407.237 50.528 403.781 52.96 402.181 54.944C401.797 55.456 401.861 55.456 403.269 55.328C404.101 55.264 405.189 55.072 405.701 54.88C406.213 54.752 406.597 54.688 406.597 54.752C406.597 54.816 407.045 54.56 407.557 54.176C408.069 53.792 408.581 53.472 408.709 53.472C409.157 53.472 411.909 50.528 411.909 50.016ZM431.428 47.456C431.876 47.968 432.132 48.48 432.068 48.8C431.94 49.312 432.132 49.248 432.836 48.672C435.076 46.88 436.612 45.984 437.38 45.984C437.572 45.984 438.468 46.624 439.428 47.392L441.156 48.864H443.716C445.124 48.864 446.276 48.8 446.276 48.736C446.212 48.224 446.34 48.096 446.596 48.416C446.788 48.8 446.916 48.8 447.3 48.48C447.492 48.288 447.684 48.224 447.684 48.352C447.684 48.48 447.876 48.416 448.004 48.288C448.196 48.096 448.516 48.032 448.708 48.096C448.9 48.16 449.156 48.096 449.22 47.904C449.348 47.776 449.604 47.648 449.86 47.648C450.052 47.648 450.436 47.456 450.692 47.2C451.204 46.624 452.42 46.688 452.42 47.264C452.42 48.16 448.58 51.232 446.404 52.064C445.636 52.32 444.42 52.64 443.716 52.768C442.244 52.96 441.86 52.768 439.172 50.784C438.788 50.528 438.276 50.4 437.892 50.528C435.652 51.104 427.14 59.616 423.556 64.928C422.852 66.016 422.468 66.144 421.956 65.632C421.764 65.44 421.636 64.928 421.636 64.544C421.636 64.096 421.508 63.712 421.38 63.584C421.188 63.52 421.06 63.136 421.06 62.752C421.06 62.368 420.932 61.792 420.804 61.536C420.42 60.832 421.06 59.616 425.796 52.512C426.756 50.976 427.844 49.44 428.164 49.056C429.188 47.712 430.788 46.112 430.724 46.368C430.66 46.56 430.98 47.008 431.428 47.456Z" fill="#F7B142"/>
</svg>
