<svg width="110" height="110" viewBox="0 0 110 110" fill="none" xmlns="http://www.w3.org/2000/svg">
<path d="M64.1667 36.6667H68.75C69.9656 36.6667 71.1314 36.1839 71.9909 35.3243C72.8505 34.4648 73.3333 33.299 73.3333 32.0834C73.3333 30.8678 72.8505 29.702 71.9909 28.8425C71.1314 27.983 69.9656 27.5001 68.75 27.5001H64.1667C62.9511 27.5001 61.7853 27.983 60.9258 28.8425C60.0662 29.702 59.5834 30.8678 59.5834 32.0834C59.5834 33.299 60.0662 34.4648 60.9258 35.3243C61.7853 36.1839 62.9511 36.6667 64.1667 36.6667ZM64.1667 55.0001H68.75C69.9656 55.0001 71.1314 54.5172 71.9909 53.6577C72.8505 52.7981 73.3333 51.6323 73.3333 50.4167C73.3333 49.2012 72.8505 48.0354 71.9909 47.1758C71.1314 46.3163 69.9656 45.8334 68.75 45.8334H64.1667C62.9511 45.8334 61.7853 46.3163 60.9258 47.1758C60.0662 48.0354 59.5834 49.2012 59.5834 50.4167C59.5834 51.6323 60.0662 52.7981 60.9258 53.6577C61.7853 54.5172 62.9511 55.0001 64.1667 55.0001ZM41.25 36.6667H45.8334C47.0489 36.6667 48.2147 36.1839 49.0743 35.3243C49.9338 34.4648 50.4167 33.299 50.4167 32.0834C50.4167 30.8678 49.9338 29.702 49.0743 28.8425C48.2147 27.983 47.0489 27.5001 45.8334 27.5001H41.25C40.0344 27.5001 38.8687 27.983 38.0091 28.8425C37.1496 29.702 36.6667 30.8678 36.6667 32.0834C36.6667 33.299 37.1496 34.4648 38.0091 35.3243C38.8687 36.1839 40.0344 36.6667 41.25 36.6667ZM41.25 55.0001H45.8334C47.0489 55.0001 48.2147 54.5172 49.0743 53.6577C49.9338 52.7981 50.4167 51.6323 50.4167 50.4167C50.4167 49.2012 49.9338 48.0354 49.0743 47.1758C48.2147 46.3163 47.0489 45.8334 45.8334 45.8334H41.25C40.0344 45.8334 38.8687 46.3163 38.0091 47.1758C37.1496 48.0354 36.6667 49.2012 36.6667 50.4167C36.6667 51.6323 37.1496 52.7981 38.0091 53.6577C38.8687 54.5172 40.0344 55.0001 41.25 55.0001ZM96.25 91.6667H91.6667V13.7501C91.6667 12.5345 91.1838 11.3687 90.3243 10.5092C89.4647 9.64963 88.2989 9.16675 87.0833 9.16675H22.9167C21.7011 9.16675 20.5353 9.64963 19.6758 10.5092C18.8162 11.3687 18.3334 12.5345 18.3334 13.7501V91.6667H13.75C12.5344 91.6667 11.3687 92.1496 10.5091 93.0092C9.64957 93.8687 9.16669 95.0345 9.16669 96.2501C9.16669 97.4657 9.64957 98.6314 10.5091 99.491C11.3687 100.351 12.5344 100.833 13.75 100.833H96.25C97.4656 100.833 98.6314 100.351 99.4909 99.491C100.35 98.6314 100.833 97.4657 100.833 96.2501C100.833 95.0345 100.35 93.8687 99.4909 93.0092C98.6314 92.1496 97.4656 91.6667 96.25 91.6667ZM59.5834 91.6667H50.4167V73.3334H59.5834V91.6667ZM82.5 91.6667H68.75V68.7501C68.75 67.5345 68.2671 66.3687 67.4076 65.5092C66.548 64.6496 65.3823 64.1667 64.1667 64.1667H45.8334C44.6178 64.1667 43.452 64.6496 42.5924 65.5092C41.7329 66.3687 41.25 67.5345 41.25 68.7501V91.6667H27.5V18.3334H82.5V91.6667Z" fill="#F7B142"/>
</svg>
