<svg width="60" height="70" viewBox="0 0 60 70" fill="none" xmlns="http://www.w3.org/2000/svg">
<path d="M19 15.5H12C11.6022 15.5 11.2206 15.658 10.9393 15.9393C10.658 16.2206 10.5 16.6022 10.5 17V39C10.5 39.197 10.5388 39.392 10.6142 39.574C10.6896 39.756 10.8001 39.9214 10.9393 40.0607C11.0786 40.1999 11.244 40.3104 11.426 40.3858C11.608 40.4612 11.803 40.5 12 40.5H19C19.197 40.5 19.392 40.4612 19.574 40.3858C19.756 40.3104 19.9214 40.1999 20.0607 40.0607C20.1999 39.9214 20.3104 39.756 20.3858 39.574C20.4612 39.392 20.5 39.197 20.5 39V17C20.5 16.6022 20.342 16.2206 20.0607 15.9393C19.7794 15.658 19.3978 15.5 19 15.5ZM49 15.5H42C41.6022 15.5 41.2206 15.658 40.9393 15.9393C40.658 16.2206 40.5 16.6022 40.5 17V39C40.5 39.197 40.5388 39.392 40.6142 39.574C40.6896 39.756 40.8001 39.9214 40.9393 40.0607C41.0786 40.1999 41.244 40.3104 41.426 40.3858C41.608 40.4612 41.803 40.5 42 40.5H49C49.197 40.5 49.392 40.4612 49.574 40.3858C49.756 40.3104 49.9214 40.1999 50.0607 40.0607C50.1999 39.9214 50.3104 39.756 50.3858 39.574C50.4612 39.392 50.5 39.197 50.5 39V17C50.5 16.6022 50.342 16.2206 50.0607 15.9393C49.7794 15.658 49.3978 15.5 49 15.5Z" stroke="#F7B142" stroke-width="3.75" stroke-linecap="round" stroke-linejoin="round"/>
<path d="M20.5 28H40.5M3 34V22C3 21.6022 3.15804 21.2206 3.43934 20.9393C3.72064 20.658 4.10218 20.5 4.5 20.5H9C9.39782 20.5 9.77936 20.658 10.0607 20.9393C10.342 21.2206 10.5 21.6022 10.5 22V34C10.5 34.3978 10.342 34.7794 10.0607 35.0607C9.77936 35.342 9.39782 35.5 9 35.5H4.5C4.10218 35.5 3.72064 35.342 3.43934 35.0607C3.15804 34.7794 3 34.3978 3 34ZM58 34V22C58 21.6022 57.842 21.2206 57.5607 20.9393C57.2794 20.658 56.8978 20.5 56.5 20.5H52C51.6022 20.5 51.2206 20.658 50.9393 20.9393C50.658 21.2206 50.5 21.6022 50.5 22V34C50.5 34.3978 50.658 34.7794 50.9393 35.0607C51.2206 35.342 51.6022 35.5 52 35.5H56.5C56.8978 35.5 57.2794 35.342 57.5607 35.0607C57.842 34.7794 58 34.3978 58 34Z" stroke="#F7B142" stroke-width="3.75" stroke-linecap="round" stroke-linejoin="round"/>
</svg>
