<svg width="60" height="70" viewBox="0 0 60 70" fill="none" xmlns="http://www.w3.org/2000/svg">
<path fill-rule="evenodd" clip-rule="evenodd" d="M9.01492 6.61726L9.58992 7.77226L4.21492 15.2973C3.8713 15.7788 3.70961 16.3667 3.75859 16.9563C3.80757 17.5459 4.06404 18.099 4.48242 18.5173L8.23242 22.2673C8.60348 22.638 9.08173 22.8826 9.59949 22.9665C10.1173 23.0504 10.6483 22.9693 11.1174 22.7348L14.2524 21.1698L15.9824 23.4748L10.8074 40.0398C10.2774 39.655 9.77608 39.2323 9.30742 38.7748C8.84764 38.3082 8.22313 38.0408 7.56819 38.0299C6.91325 38.0191 6.28022 38.2657 5.80525 38.7168C5.33027 39.1678 5.0513 39.7873 5.02833 40.4419C5.00536 41.0965 5.24023 41.734 5.68242 42.2173L7.27242 43.6298C8.26492 44.4173 9.72242 45.4423 11.6424 46.4598C15.4999 48.4998 21.2074 50.4998 28.7499 50.4998C36.2924 50.4998 42.0024 48.4998 45.8574 46.4598C47.3974 45.6517 48.8601 44.7044 50.2274 43.6298C50.6124 43.3223 51.8649 42.1748 51.8174 42.2173C52.2403 41.7724 52.4848 41.1875 52.5042 40.5741C52.5237 39.9606 52.3168 39.3614 51.9229 38.8906C51.5291 38.4199 50.9758 38.1105 50.3686 38.0213C49.7613 37.9322 49.1424 38.0695 48.6299 38.4073L46.0549 25.5298C47.3624 26.7523 48.7749 28.6423 50.2649 31.6173C50.4053 31.9212 50.6054 32.1938 50.8531 32.419C51.1009 32.6442 51.3914 32.8173 51.7073 32.9281C52.0233 33.0388 52.3583 33.085 52.6924 33.0639C53.0266 33.0427 53.3531 32.9547 53.6525 32.8049C53.952 32.6552 54.2183 32.4468 54.4357 32.1922C54.6531 31.9376 54.8172 31.6419 54.9181 31.3227C55.0191 31.0035 55.0549 30.6672 55.0234 30.3339C54.9919 30.0006 54.8938 29.6769 54.7349 29.3823C52.0949 24.0998 49.2699 21.0898 46.1174 19.5148C43.7174 18.3148 41.0524 17.9998 38.3999 17.9998H29.3949C29.1449 17.2428 28.8622 16.4971 28.5474 15.7648C27.5249 13.3798 25.8049 10.2698 23.0174 7.48226C20.1199 4.58476 17.1349 3.42476 14.7849 3.03226C13.4524 2.81226 11.9724 2.74226 10.6424 3.07476C10.2795 3.16585 9.94175 3.33723 9.65393 3.57626C9.36611 3.81529 9.1356 4.11587 8.97941 4.45584C8.82322 4.79581 8.74533 5.1665 8.75147 5.54058C8.75762 5.91467 8.84765 6.2826 9.01492 6.61726ZM44.1849 41.6748L40.8524 25.0098C40.5174 23.3398 38.9224 23.0098 37.4574 22.9998H27.4999C26.2924 22.9998 25.2949 22.1298 25.0424 20.9673C24.7718 19.8607 24.4072 18.7792 23.9524 17.7348C23.0999 15.7448 21.6949 13.2298 19.4824 11.0173C17.8499 9.38476 16.2724 8.58976 14.9924 8.20476C14.9557 8.65511 14.7976 9.08709 14.5349 9.45476L9.51492 16.4798L10.4924 17.4573L13.8824 15.7648C14.4059 15.503 15.0047 15.4331 15.5743 15.5674C16.144 15.7018 16.6485 16.0317 16.9999 16.4998L20.7499 21.4998C20.9873 21.8167 21.146 22.1856 21.213 22.5759C21.2799 22.9662 21.2531 23.3668 21.1349 23.7448L15.2249 42.6573C16.3524 43.1823 17.6424 43.6923 19.0949 44.1298L22.6599 34.6223C22.8385 34.1458 23.1582 33.7352 23.5764 33.4453C23.9945 33.1554 24.4911 32.9999 24.9999 32.9998H34.9999C35.5087 32.9999 36.0054 33.1554 36.4235 33.4453C36.8416 33.7352 37.1613 34.1458 37.3399 34.6223L40.6199 43.3648C41.9949 42.8273 43.1849 42.2423 44.1849 41.6748ZM35.8124 44.7898L33.2674 37.9998H26.7324L24.0349 45.1923C25.5979 45.4009 27.1731 45.5036 28.7499 45.4998C31.3724 45.4998 33.7249 45.2248 35.8124 44.7898Z" fill="#F7B142"/>
</svg>
