<svg width="60" height="70" viewBox="0 0 60 70" fill="none" xmlns="http://www.w3.org/2000/svg">
<path d="M56.2501 24.2494C56.2464 20.7696 54.8624 17.4334 52.4018 14.9728C49.9412 12.5122 46.6049 11.1281 43.1251 11.1244C42.7103 11.1244 42.2954 11.1479 41.8853 11.1854C40.827 8.92665 39.147 7.01626 37.0421 5.67797C34.9372 4.33968 32.4945 3.62891 30.0001 3.62891C27.5058 3.62891 25.0631 4.33968 22.9582 5.67797C20.8532 7.01626 19.1732 8.92665 18.115 11.1854C17.7048 11.1479 17.29 11.1244 16.8751 11.1244C13.8957 11.1251 11.0052 12.1396 8.67874 14.0009C6.35228 15.8622 4.72834 18.4597 4.07388 21.3664C3.41941 24.273 3.77336 27.3158 5.07755 29.9947C6.38174 32.6735 8.55854 34.8288 11.2501 36.1065V46.7494C11.2501 47.744 11.6452 48.6978 12.3485 49.4011C13.0517 50.1043 14.0056 50.4994 15.0001 50.4994H45.0001C45.9947 50.4994 46.9485 50.1043 47.6518 49.4011C48.355 48.6978 48.7501 47.744 48.7501 46.7494V36.1065C50.9924 35.0401 52.8868 33.3605 54.2141 31.2621C55.5414 29.1637 56.2473 26.7324 56.2501 24.2494ZM45.0001 46.7494H15.0001V37.2385C15.621 37.329 16.2477 37.3744 16.8751 37.3744H43.1251C43.7526 37.3744 44.3792 37.329 45.0001 37.2385V46.7494ZM43.1251 33.6244H39.9025L41.1939 28.4541C41.3049 27.9751 41.2234 27.4716 40.9668 27.0522C40.7102 26.6327 40.2991 26.3308 39.8221 26.2116C39.3451 26.0923 38.8403 26.1652 38.4165 26.4146C37.9927 26.664 37.6838 27.0698 37.5564 27.5447L36.0353 33.6244H31.8751V27.9994C31.8751 27.5021 31.6776 27.0252 31.326 26.6736C30.9743 26.322 30.4974 26.1244 30.0001 26.1244C29.5028 26.1244 29.0259 26.322 28.6743 26.6736C28.3227 27.0252 28.1251 27.5021 28.1251 27.9994V33.6244H23.965L22.4439 27.5447C22.3877 27.3022 22.2837 27.0734 22.1381 26.8715C21.9925 26.6696 21.8081 26.4987 21.5958 26.3688C21.3834 26.2389 21.1473 26.1526 20.9012 26.1149C20.6552 26.0772 20.4041 26.0889 20.1626 26.1492C19.9211 26.2096 19.694 26.3175 19.4946 26.4665C19.2953 26.6156 19.1276 26.8028 19.0013 27.0174C18.8751 27.2319 18.7928 27.4695 18.7594 27.7161C18.7259 27.9628 18.7419 28.2137 18.8064 28.4541L20.0978 33.6244H16.8751C14.3887 33.6244 12.0042 32.6367 10.246 30.8786C8.48785 29.1204 7.50013 26.7358 7.50013 24.2494C7.50013 21.763 8.48785 19.3785 10.246 17.6203C12.0042 15.8621 14.3887 14.8744 16.8751 14.8744H17.0111C16.9202 15.4953 16.8747 16.1219 16.8751 16.7494C16.8751 17.2467 17.0727 17.7236 17.4243 18.0752C17.7759 18.4269 18.2528 18.6244 18.7501 18.6244C19.2474 18.6244 19.7243 18.4269 20.076 18.0752C20.4276 17.7236 20.6251 17.2467 20.6251 16.7494C20.6251 14.263 21.6129 11.8785 23.371 10.1203C25.1292 8.36214 27.5137 7.37442 30.0001 7.37442C32.4865 7.37442 34.8711 8.36214 36.6293 10.1203C38.3874 11.8785 39.3751 14.263 39.3751 16.7494C39.3751 17.2467 39.5727 17.7236 39.9243 18.0752C40.2759 18.4269 40.7528 18.6244 41.2501 18.6244C41.7474 18.6244 42.2243 18.4269 42.576 18.0752C42.9276 17.7236 43.1251 17.2467 43.1251 16.7494C43.1255 16.1219 43.0801 15.4953 42.9892 14.8744H43.1251C45.6115 14.8744 47.9961 15.8621 49.7543 17.6203C51.5124 19.3785 52.5001 21.763 52.5001 24.2494C52.5001 26.7358 51.5124 29.1204 49.7543 30.8786C47.9961 32.6367 45.6115 33.6244 43.1251 33.6244Z" fill="#F7B142"/>
</svg>
