<svg width="60" height="60" viewBox="0 0 60 60" fill="none" xmlns="http://www.w3.org/2000/svg">
<path fill-rule="evenodd" clip-rule="evenodd" d="M23.24 4.97469C24.7225 6.35719 25.8675 8.39469 26.455 10.7222C27.045 13.0522 27.005 15.4047 26.385 17.3572C25.7725 19.2747 24.48 21.0872 22.3775 21.6847C20.25 22.2897 18.2275 21.3922 16.76 20.0222C15.2775 18.6397 14.1325 16.6047 13.545 14.2772C12.955 11.9472 12.995 9.59469 13.615 7.64219C14.2275 5.72219 15.52 3.91219 17.6225 3.31469C19.75 2.70969 21.7725 3.60719 23.24 4.97719M20.6825 7.72219C19.7975 6.89719 19.0825 6.79969 18.6475 6.92219C18.19 7.05469 17.58 7.55469 17.1875 8.78469C16.8075 9.98219 16.7375 11.6147 17.18 13.3597C17.6225 15.1097 18.445 16.4697 19.3175 17.2847C20.2025 18.1097 20.9175 18.2047 21.3525 18.0797C21.81 17.9497 22.42 17.4497 22.8125 16.2197C23.1925 15.0222 23.2625 13.3897 22.82 11.6447C22.3775 9.89469 21.555 8.53719 20.6825 7.72219ZM27.125 23.5972C28.9902 22.9684 31.0099 22.9684 32.875 23.5972C34.9425 24.2947 36.4475 26.0272 37.8425 28.2397C39.2425 30.4647 40.7675 33.5622 42.7025 37.5072L44.97 42.1222C45.47 43.1347 45.865 43.9422 46.15 44.5847C46.4325 45.2172 46.675 45.8347 46.775 46.4347C47.465 50.4672 44.4825 54.2522 40.3675 54.3722C39.7174 54.3701 39.0703 54.2836 38.4425 54.1147C37.5685 53.902 36.6984 53.6737 35.8325 53.4297L35.7925 53.4197C34.9988 53.1866 34.1975 52.9798 33.39 52.7997C31.153 52.3444 28.8471 52.3444 26.61 52.7997C25.8026 52.9798 25.0013 53.1866 24.2075 53.4197L24.1675 53.4297C23.095 53.7222 22.2375 53.9597 21.56 54.1147C20.9314 54.2838 20.2835 54.3704 19.6325 54.3722C15.5175 54.2522 12.535 50.4672 13.225 46.4347C13.325 45.8347 13.57 45.2172 13.85 44.5847C14.135 43.9422 14.5325 43.1347 15.03 42.1222L17.2975 37.5072C19.235 33.5622 20.755 30.4622 22.1575 28.2397C23.5525 26.0272 25.055 24.2947 27.125 23.5972ZM31.6775 27.1497C30.5908 26.7839 29.4143 26.7839 28.3275 27.1497C27.545 27.4122 26.6325 28.1797 25.3325 30.2397C24.05 32.2747 22.615 35.1897 20.6125 39.2647L18.415 43.7397C17.8975 44.7947 17.5325 45.5397 17.2775 46.1097C17.1268 46.4159 17.0079 46.7367 16.9225 47.0672C16.605 48.9272 17.9825 50.5722 19.7425 50.6247C19.8425 50.6272 20.0925 50.6072 20.7125 50.4622C21.5513 50.2566 22.3864 50.0366 23.2175 49.8022L23.2925 49.7822C24.485 49.4547 25.175 49.2647 25.8675 49.1247C28.5955 48.5701 31.4071 48.5701 34.135 49.1247C34.83 49.2647 35.52 49.4547 36.715 49.7822L36.7875 49.8022C37.9075 50.1097 38.695 50.3247 39.2925 50.4622C39.91 50.6072 40.165 50.6272 40.2625 50.6247C42.0225 50.5747 43.4 48.9247 43.0825 47.0647C42.997 46.7351 42.8781 46.4151 42.7275 46.1097C42.3618 45.3133 41.9826 44.5232 41.59 43.7397L39.3925 39.2647C37.3925 35.1897 35.955 32.2747 34.6725 30.2397C33.3725 28.1797 32.46 27.4147 31.6775 27.1497ZM33.545 10.7222C34.1325 8.39469 35.2775 6.35719 36.76 4.97719C38.2275 3.60719 40.25 2.70969 42.3775 3.31469C44.48 3.91219 45.7725 5.72219 46.385 7.64219C47.0075 9.59219 47.045 11.9472 46.455 14.2772C45.8675 16.6047 44.7225 18.6397 43.24 20.0222C41.7725 21.3922 39.75 22.2897 37.6225 21.6847C35.52 21.0847 34.2275 19.2747 33.615 17.3572C32.995 15.4047 32.955 13.0522 33.545 10.7222ZM41.3525 6.92219C40.9175 6.79719 40.2025 6.89219 39.3175 7.71969C38.4475 8.53219 37.6225 9.89219 37.18 11.6397C36.7375 13.3872 36.805 15.0197 37.19 16.2172C37.58 17.4472 38.19 17.9472 38.65 18.0772C39.0825 18.2022 39.7975 18.1072 40.6825 17.2797C41.555 16.4672 42.3775 15.1072 42.82 13.3597C43.2625 11.6122 43.195 9.97969 42.8125 8.78219C42.42 7.55219 41.81 7.05219 41.3525 6.92219ZM11.7375 23.0072C10.33 22.0322 8.50754 21.5172 6.71254 22.1522C4.91004 22.7897 3.83255 24.3422 3.38755 25.9972C2.94005 27.6572 3.06754 29.5722 3.74754 31.3972C4.43004 33.2222 5.59505 34.7597 7.01255 35.7422C8.42005 36.7172 10.2425 37.2297 12.0375 36.5972C13.84 35.9597 14.9175 34.4072 15.3625 32.7522C15.81 31.0922 15.685 29.1772 15.0025 27.3522C14.32 25.5272 13.155 23.9897 11.7375 23.0072ZM9.60504 26.0922C10.325 26.5922 11.045 27.4747 11.49 28.6622C11.9325 29.8497 11.96 30.9672 11.74 31.7772C11.5225 32.5922 11.1225 32.9422 10.7875 33.0622C10.4425 33.1847 9.87504 33.1622 9.14504 32.6572C8.42504 32.1572 7.70505 31.2722 7.26005 30.0872C6.81755 28.8997 6.79004 27.7822 7.01004 26.9722C7.22754 26.1572 7.62754 25.8072 7.96254 25.6872C8.30754 25.5647 8.87504 25.5872 9.60504 26.0922ZM53.2875 22.1497C51.4925 21.5172 49.67 22.0347 48.2625 23.0072C46.845 23.9897 45.68 25.5247 44.9975 27.3522C44.3175 29.1772 44.1925 31.0922 44.6375 32.7522C45.0825 34.4072 46.16 35.9597 47.9625 36.5972C49.7575 37.2322 51.58 36.7147 52.9875 35.7422C54.405 34.7597 55.57 33.2247 56.2525 31.3972C56.935 29.5722 57.06 27.6572 56.6125 25.9972C56.1675 24.3422 55.09 22.7897 53.2875 22.1522M48.5125 28.6647C48.955 27.4772 49.675 26.5947 50.395 26.0947C51.125 25.5897 51.695 25.5697 52.0375 25.6897C52.3725 25.8072 52.7725 26.1597 52.9925 26.9747C53.21 27.7847 53.1825 28.8997 52.74 30.0897C52.295 31.2747 51.575 32.1597 50.855 32.6597C50.125 33.1647 49.5575 33.1847 49.2125 33.0647C48.8775 32.9472 48.4775 32.5947 48.2575 31.7797C48.04 30.9697 48.0675 29.8547 48.51 28.6647" fill="#F7B142"/>
</svg>
