<svg width="60" height="60" viewBox="0 0 60 60" fill="none" xmlns="http://www.w3.org/2000/svg">
<path fill-rule="evenodd" clip-rule="evenodd" d="M23.7501 12.5C22.7556 12.5 21.8017 12.8951 21.0985 13.5983C20.3952 14.3016 20.0001 15.2554 20.0001 16.25V25H37.5001V16.25C37.5001 13.9294 38.422 11.7038 40.0629 10.0628C41.7039 8.42187 43.9295 7.5 46.2501 7.5C48.5708 7.5 50.7964 8.42187 52.4373 10.0628C54.0783 11.7038 55.0001 13.9294 55.0001 16.25C54.9994 16.8872 54.7554 17.5001 54.318 17.9634C53.8806 18.4268 53.2827 18.7056 52.6466 18.7429C52.0105 18.7803 51.3842 18.5733 50.8955 18.1643C50.4069 17.7554 50.0929 17.1752 50.0176 16.5425L50.0001 16.25C50.0001 15.2554 49.605 14.3016 48.9018 13.5983C48.1985 12.8951 47.2447 12.5 46.2501 12.5C45.2556 12.5 44.3017 12.8951 43.5985 13.5983C42.8952 14.3016 42.5001 15.2554 42.5001 16.25V37.5C42.4985 37.8617 42.4276 38.1975 42.2876 38.5075C42.7198 38.7426 43.2117 38.845 43.7017 38.8019C44.1918 38.7588 44.6582 38.572 45.0426 38.265L48.4376 35.5475C48.694 35.3423 48.9883 35.1896 49.3038 35.0982C49.6192 35.0067 49.9495 34.9783 50.2759 35.0145C50.6023 35.0507 50.9184 35.1509 51.2061 35.3092C51.4938 35.4676 51.7474 35.6811 51.9526 35.9375C52.1578 36.1939 52.3105 36.4882 52.4019 36.8036C52.4934 37.119 52.5218 37.4494 52.4856 37.7758C52.4494 38.1022 52.3492 38.4182 52.1909 38.7059C52.0325 38.9936 51.819 39.2473 51.5626 39.4525L48.1676 42.1675C46.9249 43.1619 45.3981 43.7351 43.808 43.8043C42.2179 43.8736 40.6471 43.4351 39.3226 42.5525L37.9051 41.6075C37.4636 41.3128 36.9397 41.1663 36.4093 41.1892C35.8789 41.2121 35.3696 41.4033 34.9551 41.735L34.6851 41.9525C33.3553 43.0163 31.7031 43.5958 30.0001 43.5958C28.2972 43.5958 26.6449 43.0163 25.3151 41.9525L25.0426 41.735C24.6279 41.4037 24.1184 41.2129 23.5881 41.1905C23.0577 41.168 22.5339 41.3149 22.0926 41.61L20.6801 42.5525C19.3555 43.4357 17.7841 43.8745 16.1935 43.8053C14.6029 43.736 13.0756 43.1624 11.8326 42.1675L8.43763 39.4525C7.9198 39.0381 7.58779 38.435 7.51465 37.7758C7.44151 37.1166 7.63323 36.4553 8.04763 35.9375C8.46203 35.4197 9.06517 35.0877 9.72436 35.0145C10.3835 34.9414 11.0448 35.1331 11.5626 35.5475L15.0001 38.3V16.25C15.0001 15.1009 15.2265 13.9631 15.6662 12.9015C16.1059 11.8399 16.7504 10.8753 17.5629 10.0628C18.3755 9.2503 19.3401 8.60578 20.4017 8.16605C21.4633 7.72633 22.6011 7.5 23.7501 7.5C24.8992 7.5 26.037 7.72633 27.0986 8.16605C28.1602 8.60578 29.1248 9.2503 29.9373 10.0628C30.7498 10.8753 31.3944 11.8399 31.8341 12.9015C32.2738 13.9631 32.5001 15.1009 32.5001 16.25C32.4994 16.8872 32.2554 17.5001 31.818 17.9634C31.3806 18.4268 30.7827 18.7056 30.1466 18.7429C29.5105 18.7803 28.8842 18.5733 28.3955 18.1643C27.9069 17.7554 27.5929 17.1752 27.5176 16.5425L27.5001 16.25C27.5001 15.2554 27.105 14.3016 26.4018 13.5983C25.6985 12.8951 24.7447 12.5 23.7501 12.5ZM37.5001 36.2525V30H20.0001V37.045C21.2908 36.3686 22.7507 36.0829 24.2011 36.2228C25.6516 36.3626 27.0299 36.922 28.1676 37.8325L28.4376 38.05C28.881 38.405 29.4321 38.5984 30.0001 38.5984C30.5681 38.5984 31.1192 38.405 31.5626 38.05L31.8326 37.8325C32.6218 37.2003 33.5307 36.7342 34.5047 36.4622C35.4787 36.1903 36.4976 36.1181 37.5001 36.25V36.2525ZM45.0426 48.265C44.6279 48.5963 44.1184 48.7871 43.5881 48.8095C43.0577 48.832 42.5339 48.6851 42.0926 48.39L40.6801 47.4475C39.3555 46.5643 37.7841 46.1255 36.1935 46.1947C34.6029 46.264 33.0756 46.8376 31.8326 47.8325L31.5626 48.05C31.1192 48.405 30.5681 48.5984 30.0001 48.5984C29.4321 48.5984 28.881 48.405 28.4376 48.05L28.1676 47.8325C26.9249 46.8381 25.3981 46.2649 23.808 46.1957C22.2179 46.1264 20.6471 46.5649 19.3226 47.4475L17.9051 48.3925C17.4636 48.6872 16.9397 48.8337 16.4093 48.8108C15.8789 48.7879 15.3696 48.5967 14.9551 48.265L11.5626 45.5475C11.0448 45.1331 10.3835 44.9414 9.72436 45.0145C9.06517 45.0877 8.46203 45.4197 8.04763 45.9375C7.63323 46.4553 7.44151 47.1166 7.51465 47.7758C7.58779 48.435 7.9198 49.0381 8.43763 49.4525L11.8326 52.1675C13.0756 53.1624 14.6029 53.736 16.1935 53.8053C17.7841 53.8745 19.3555 53.4357 20.6801 52.5525L22.0951 51.6075C22.5367 51.3128 23.0606 51.1663 23.591 51.1892C24.1213 51.2121 24.6307 51.4033 25.0451 51.735L25.3151 51.9525C26.6449 53.0163 28.2972 53.5958 30.0001 53.5958C31.7031 53.5958 33.3553 53.0163 34.6851 51.9525L34.9576 51.735C35.3724 51.4037 35.8818 51.2129 36.4122 51.1905C36.9426 51.168 37.4663 51.3149 37.9076 51.61L39.3226 52.5525C40.6471 53.4351 42.2179 53.8736 43.808 53.8043C45.3981 53.7351 46.9249 53.1619 48.1676 52.1675L51.5626 49.4525C51.819 49.2473 52.0325 48.9936 52.1909 48.7059C52.3492 48.4182 52.4494 48.1022 52.4856 47.7758C52.5218 47.4494 52.4934 47.119 52.4019 46.8036C52.3105 46.4882 52.1578 46.1939 51.9526 45.9375C51.7474 45.6811 51.4938 45.4676 51.2061 45.3092C50.9184 45.1509 50.6023 45.0507 50.2759 45.0145C49.9495 44.9783 49.6192 45.0067 49.3038 45.0982C48.9883 45.1896 48.694 45.3423 48.4376 45.5475L45.0426 48.265Z" fill="#F7B142"/>
</svg>
