<svg width="60" height="60" viewBox="0 0 60 60" fill="none" xmlns="http://www.w3.org/2000/svg">
<path d="M37.075 38.625C36.175 37.25 35.45 35.975 34.775 34.8C31.85 29.775 29.475 26.375 22.5 25.325V13.75C22.5 8.925 18.575 5 13.75 5C8.925 5 5 8.925 5 13.75V55H10V50H17.5V55H22.5V30.4C26.9 31.25 28.225 33.475 30.425 37.3C31.15 38.575 31.95 39.925 32.925 41.4C38.525 49.8 44.175 55 55 55V50C46.325 50 42 46 37.075 38.625ZM13.75 10C15.825 10 17.5 11.675 17.5 13.75V25H10V13.75C10 11.675 11.675 10 13.75 10ZM10 45V40H17.5V45H10ZM17.5 35H10V30H17.5V35Z" fill="#F7B142"/>
</svg>
