<svg width="60" height="60" viewBox="0 0 60 60" fill="none" xmlns="http://www.w3.org/2000/svg">
<path d="M22.5 35C22.5 39.025 25.9425 40 30.19 40C37.415 40 39.8025 35.8325 34.995 27.5C28.2675 35 27.305 23.3325 28.2675 20C25.3825 25 22.5 29.6975 22.5 35Z" stroke="#F7B142" stroke-width="3.75" stroke-linecap="round" stroke-linejoin="round"/>
<path d="M30 40C37.89 40 42.5 34.755 42.5 25.7825C42.5 16.81 30 7.5 30 7.5C30 7.5 17.5 16.8075 17.5 25.7825C17.5 34.7575 22.11 40 30 40Z" stroke="#F7B142" stroke-width="3.75" stroke-linecap="round" stroke-linejoin="round"/>
<path d="M10.6824 52.6752L49.3174 42.3252M10.6824 42.3252L29.9999 47.5002M49.3174 52.6752L39.6599 50.0877" stroke="#F7B142" stroke-width="3.75" stroke-linecap="round"/>
</svg>
