<svg width="60" height="70" viewBox="0 0 60 70" fill="none" xmlns="http://www.w3.org/2000/svg">
<path d="M17.9248 24.7647L29.9998 27.9997L42.0748 31.2347L54.1485 34.4709C57.071 23.5622 52.3098 12.4072 43.1823 6.74967C41.0989 5.46012 38.8372 4.48385 36.4698 3.85217C33.7524 3.12106 30.9311 2.85397 28.1248 3.06217C17.8285 3.83717 8.67479 10.9897 5.85229 21.5284L17.9248 24.7647Z" stroke="#F7B142" stroke-width="5" stroke-linecap="round" stroke-linejoin="round"/>
<path d="M20.3412 25.4106C20.3412 25.4106 21.3549 19.2118 25.3874 13.8218C29.4199 8.43184 36.4699 3.85059 36.4699 3.85059C36.4699 3.85059 40.2862 11.3443 41.0837 18.0281C41.8812 24.7118 39.6587 30.5881 39.6587 30.5881" stroke="#F7B142" stroke-width="5" stroke-linecap="round" stroke-linejoin="round"/>
<path d="M5.8525 21.5304L17.9262 24.7654L30 28.0004M30 28.0004L42.0725 31.2354L54.1475 34.4717M30 28.0004L23.125 53.0004M5 53.0004H55M28.125 3.06418C30.9312 2.85516 33.7525 3.12141 36.47 3.85168C38.8375 4.48414 41.0992 5.46125 43.1825 6.75168" stroke="#F7B142" stroke-width="5" stroke-linecap="round" stroke-linejoin="round"/>
</svg>
