<svg width="60" height="60" viewBox="0 0 60 60" fill="none" xmlns="http://www.w3.org/2000/svg">
<path d="M27.5 42.5C27.5 42.5 28.25 47.5 22.5 55H37.5C31.75 47.5 32.5 42.5 32.5 42.5C32.5 42.5 35 45 40 45C45 45 50 40 50 35C50 22.5 37.5 17.5 30 5C22.5 17.5 10 22.5 10 35C10 40 15 45 20 45C25 45 27.5 42.5 27.5 42.5ZM32.5 35H27.5C27.5 35 25 40 20 40C17.75 40 15 37.25 15 35C14.5 27.5 24.75 20.5 30 13.5C35.25 20.25 45.5 27.25 45 35C45 37.25 42.25 40 40 40C35 40 32.5 35 32.5 35Z" fill="#F7B142"/>
</svg>
