<svg width="60" height="70" viewBox="0 0 60 70" fill="none" xmlns="http://www.w3.org/2000/svg">
<path d="M22.4999 38C23.0999 38 23.5624 37.465 24.4874 36.395L33.7049 25.7025C38.4374 20.2175 40.8049 17.4725 39.7549 15.2375C38.7049 13 35.0524 13 27.7474 13H17.2524C9.94986 13 6.28986 13 5.24486 15.2375C4.19986 17.475 6.56236 20.2175 11.2924 25.7025L20.5124 36.395C21.4349 37.465 21.8999 38 22.4999 38ZM22.4999 38V53M21.2499 13L20.2474 6.985C20.1726 6.53695 19.9771 6.11775 19.682 5.77242C19.3869 5.4271 19.0033 5.1687 18.5724 5.025L12.4999 3M18.7499 53H26.2499" stroke="#F7B142" stroke-width="3.75" stroke-linecap="round" stroke-linejoin="round"/>
<path d="M39.65 20.0825C40.4764 21.002 41.4872 21.737 42.6167 22.2397C43.7461 22.7424 44.9688 23.0014 46.205 23C48.5314 23.0053 50.7647 22.0866 52.414 20.4458C54.0632 18.805 54.9934 16.5764 55 14.25C55 9.41753 51.0625 5.50003 46.205 5.50003C44.0947 5.49447 42.053 6.24963 40.4542 7.6271C38.8554 9.00457 37.8066 10.9121 37.5 13" stroke="#F7B142" stroke-width="3.75" stroke-linecap="round" stroke-linejoin="round"/>
</svg>
