<svg width="60" height="60" viewBox="0 0 60 60" fill="none" xmlns="http://www.w3.org/2000/svg">
<path d="M10 55C8.625 55 7.44833 54.5108 6.47 53.5325C5.49167 52.5542 5.00167 51.3767 5 50V10C5 8.625 5.49 7.44833 6.47 6.47C7.45 5.49167 8.62667 5.00167 10 5H50C51.375 5 52.5525 5.49 53.5325 6.47C54.5125 7.45 55.0017 8.62667 55 10V50C55 51.375 54.5108 52.5525 53.5325 53.5325C52.5542 54.5125 51.3767 55.0017 50 55H10ZM10 40V50H15V45H12.5V40H10ZM10 35H12.5C12.5 34.2917 12.74 33.6983 13.22 33.22C13.7 32.7417 14.2933 32.5017 15 32.5V26.25C15 25.2083 15.365 24.3233 16.095 23.595C16.825 22.8667 17.71 22.5017 18.75 22.5H23.75C24.7917 22.5 25.6775 22.865 26.4075 23.595C27.1375 24.325 27.5017 25.21 27.5 26.25V32.5C28.2083 32.5 28.8025 32.74 29.2825 33.22C29.7625 33.7 30.0017 34.2933 30 35H50V10H10V35ZM16.25 41.25H26.25V36.25H16.25V41.25ZM21.25 20C20.2083 20 19.3233 19.6358 18.595 18.9075C17.8667 18.1792 17.5017 17.2933 17.5 16.25C17.4983 15.2067 17.8633 14.3217 18.595 13.595C19.3267 12.8683 20.2117 12.5033 21.25 12.5C22.2883 12.4967 23.1742 12.8617 23.9075 13.595C24.6408 14.3283 25.005 15.2133 25 16.25C24.995 17.2867 24.6308 18.1725 23.9075 18.9075C23.1842 19.6425 22.2983 20.0067 21.25 20ZM20 50H22.5V45H20V50ZM27.5 50H50V40H30V45H27.5V50ZM30.625 25C30.7083 24.4583 30.7608 24.0517 30.7825 23.78C30.8042 23.5083 30.8142 23.2275 30.8125 22.9375C30.8125 22.4792 30.7192 22.0417 30.5325 21.625C30.3458 21.2083 29.96 20.6458 29.375 19.9375C28.75 19.1458 28.2817 18.3542 27.97 17.5625C27.6583 16.7708 27.5017 15.9583 27.5 15.125C27.5 14.7917 27.5208 14.4483 27.5625 14.095L27.75 12.5H31.5C31.4167 12.9583 31.3542 13.3858 31.3125 13.7825C31.2708 14.1792 31.25 14.6267 31.25 15.125C31.25 15.5833 31.3442 16.0317 31.5325 16.47C31.7208 16.9083 32.0433 17.3767 32.5 17.875C33.25 18.7917 33.7917 19.6567 34.125 20.47C34.4583 21.2833 34.625 22.1058 34.625 22.9375C34.625 23.3958 34.6042 23.7708 34.5625 24.0625C34.5208 24.3542 34.4583 24.6667 34.375 25H30.625ZM36.875 25C36.9583 24.4583 37.0108 24.0517 37.0325 23.78C37.0542 23.5083 37.0642 23.2275 37.0625 22.9375C37.0625 22.4792 36.9692 22.0417 36.7825 21.625C36.5958 21.2083 36.21 20.6458 35.625 19.9375C35 19.1458 34.5317 18.3542 34.22 17.5625C33.9083 16.7708 33.7517 15.9583 33.75 15.125C33.75 14.7917 33.7708 14.4483 33.8125 14.095L34 12.5H37.75C37.6667 12.9583 37.6042 13.3858 37.5625 13.7825C37.5208 14.1792 37.5 14.6267 37.5 15.125C37.5 15.5833 37.5942 16.0317 37.7825 16.47C37.9708 16.9083 38.2933 17.3767 38.75 17.875C39.5 18.7917 40.0417 19.6567 40.375 20.47C40.7083 21.2833 40.875 22.1058 40.875 22.9375C40.875 23.3958 40.8542 23.7708 40.8125 24.0625C40.7708 24.3542 40.7083 24.6667 40.625 25H36.875ZM43.25 25C43.3333 24.4583 43.3858 24.0517 43.4075 23.78C43.4292 23.5083 43.4392 23.2275 43.4375 22.9375C43.4375 22.4792 43.3442 22.0417 43.1575 21.625C42.9708 21.2083 42.585 20.6458 42 19.9375C41.375 19.1458 40.9067 18.3542 40.595 17.5625C40.2833 16.7708 40.1267 15.9583 40.125 15.125C40.125 14.7917 40.1458 14.4483 40.1875 14.095L40.375 12.5H44.125C44.0417 12.9583 43.9792 13.3858 43.9375 13.7825C43.8958 14.1792 43.875 14.6267 43.875 15.125C43.875 15.5833 43.9692 16.0317 44.1575 16.47C44.3458 16.9083 44.6683 17.3767 45.125 17.875C45.875 18.7917 46.4167 19.6567 46.75 20.47C47.0833 21.2833 47.25 22.1058 47.25 22.9375C47.25 23.3958 47.2292 23.7708 47.1875 24.0625C47.1458 24.3542 47.0833 24.6667 47 25H43.25Z" fill="#F7B142"/>
</svg>
