<svg width="60" height="60" viewBox="0 0 60 60" fill="none" xmlns="http://www.w3.org/2000/svg">
<path d="M30 55C26.9583 54.625 23.9375 53.8025 20.9375 52.5325C17.9375 51.2625 15.2608 49.4392 12.9075 47.0625C10.5542 44.6858 8.6475 41.6858 7.1875 38.0625C5.7275 34.4392 4.99834 30.085 5 25V22.5H7.5C9.625 22.5 11.8125 22.7708 14.0625 23.3125C16.3125 23.8542 18.4167 24.6667 20.375 25.75C20.875 22.1667 22.0108 18.4892 23.7825 14.7175C25.5542 10.9458 27.6267 7.70667 30 5C32.375 7.70833 34.4483 10.9483 36.22 14.72C37.9917 18.4917 39.1267 22.1683 39.625 25.75C41.5833 24.6667 43.6875 23.8542 45.9375 23.3125C48.1875 22.7708 50.375 22.5 52.5 22.5H55V25C55 30.0833 54.2708 34.4375 52.8125 38.0625C51.3542 41.6875 49.4483 44.6875 47.095 47.0625C44.7417 49.4375 42.075 51.2608 39.095 52.5325C36.115 53.8042 33.0833 54.6267 30 55ZM29.875 49.875C29.4167 42.9583 27.3642 37.7292 23.7175 34.1875C20.0708 30.6458 15.54 28.4583 10.125 27.625C10.5833 34.75 12.6983 40.0625 16.47 43.5625C20.2417 47.0625 24.71 49.1667 29.875 49.875ZM30 34C30.625 33.0833 31.3858 32.1358 32.2825 31.1575C33.1792 30.1792 34.0433 29.335 34.875 28.625C34.7917 26.25 34.3233 23.7708 33.47 21.1875C32.6167 18.6042 31.46 16.0833 30 13.625C28.5417 16.0833 27.385 18.6042 26.53 21.1875C25.675 23.7708 25.2067 26.25 25.125 28.625C25.9583 29.3333 26.8333 30.1775 27.75 31.1575C28.6667 32.1375 29.4167 33.085 30 34ZM34.875 48.75C36.4167 48.25 38.0208 47.5208 39.6875 46.5625C41.3542 45.6042 42.9067 44.3025 44.345 42.6575C45.7833 41.0125 47.0125 38.96 48.0325 36.5C49.0525 34.04 49.6667 31.0817 49.875 27.625C45.9583 28.2083 42.5208 29.5108 39.5625 31.5325C36.6042 33.5542 34.3333 36.1267 32.75 39.25C33.25 40.5833 33.6775 42.0417 34.0325 43.625C34.3875 45.2083 34.6683 46.9167 34.875 48.75Z" fill="#F7B142"/>
</svg>
